<?xml version="1.0" encoding="utf-8"?>
<!-- Generator: Adobe Illustrator 18.1.1, SVG Export Plug-In . SVG Version: 6.00 Build 0)  -->
<!DOCTYPE svg PUBLIC "-//W3C//DTD SVG 1.1//EN" "http://www.w3.org/Graphics/SVG/1.1/DTD/svg11.dtd">
<svg version="1.1" id="Layer_1" xmlns="http://www.w3.org/2000/svg" xmlns:xlink="http://www.w3.org/1999/xlink" x="0px" y="0px"
	 viewBox="0 0 747 166.1" enable-background="new 0 0 747 166.1" xml:space="preserve">
<g>
	<path fill="#4B92DB" d="M297,29.3V112h-20.6V29.3H297z"/>
	<path fill="#4B92DB" d="M312.3,29.3h33.3c13.6,0,25.6,0,32.9,10.4c3.2,4.7,4.7,11.4,4.7,17c0,4.6-0.9,9-2.8,12.9
		c-7.1,14.8-22.4,15.1-33.6,15.3h-13.7V112h-20.7V29.3z M333.1,44.5v25.1h12.4c7.7,0,17.1-0.2,17.1-13c0-12.1-10.4-12.1-16.4-12.1
		H333.1z"/>
	<path fill="#4B92DB" d="M386.9,29.2h63.7v16.4h-21.4V112h-20.7V45.6h-21.5V29.2z"/>
	<path fill="#4B92DB" d="M528.4,93.1c-3,4.8-6,9.5-12.5,14.1c-3.5,2.5-11.6,7.3-23.1,7.3c-21.9,0-39.6-15.9-39.6-43.9
		c0-24.5,16.6-43.8,40.1-43.8c9.5,0,17.9,3.3,24.1,8.2c5.7,4.6,8.4,9.1,10.8,13.2l-16.4,8.2c-1.2-2.7-2.6-5.5-6.2-8.5
		c-4-3.2-8-4.1-11.4-4.1c-13.4,0-20.4,12.4-20.4,26.2c0,18.2,9.3,27.2,20.4,27.2c10.8,0,15.1-7.5,17.9-12.3L528.4,93.1z"/>
	<path fill="#4B92DB" d="M536.7,29.3h61.1v16h-40.5v15h37.8V76h-37.8v19.7h44.2V112h-64.8V29.3z"/>
	<path fill="#4B92DB" d="M622.3,87.1c2.1,2.3,3.9,4.2,8,6.4c5.5,2.9,11.1,4,15.9,4c8.2,0,15.2-3.9,15.2-9.6c0-6.6-8.3-7.6-14.4-8.4
		c-4.6-0.6-9.1-1.2-13.6-2.1c-5-1.1-22.3-4.7-22.3-22.5c0-21.3,19-27.6,33.3-27.6c19.1,0,29.4,9.3,36.5,15.7l-15.2,10.9
		c-2.6-2.6-4.9-4.8-8.2-6.7c-2.9-1.6-8.2-3.6-13.5-3.6c-8.2,0-12.3,4.7-12.3,8.7c0,6.3,7,7.3,10.5,7.7c8.8,1.1,20.6,3.3,25.3,4.9
		c9.5,3.5,14.3,10.9,14.3,20.3c0,6-2.2,12.5-6.6,17.6c-7.5,8.7-19.4,11.1-31,11.1c-23.3,0-32.6-10.8-37.7-16.7L622.3,87.1z"/>
</g>
<g>
	<path fill="#4B92DB" d="M277.7,141.2v10.6h-1.9v-10.6H277.7z"/>
	<path fill="#4B92DB" d="M279.9,144.3h1.8v0.9c0.1-0.1,0.3-0.4,0.6-0.6c0.5-0.3,1.1-0.5,1.7-0.5c0.9,0,1.6,0.4,2,0.9
		c0.5,0.6,0.5,1.4,0.5,2.4v4.4h-1.8v-3.8c0-0.6,0-0.9-0.1-1.1c-0.2-0.7-0.6-1-1.2-1s-1.1,0.3-1.4,0.8c-0.3,0.6-0.3,1.3-0.3,1.9v3.3
		h-1.8V144.3z"/>
	<path fill="#4B92DB" d="M290.3,145.5v3.4c0,0.9,0,1.3,0.9,1.3c0.3,0,0.5,0,0.8-0.1v1.5c-0.5,0.1-0.9,0.1-1.3,0.1
		c-0.4,0-1.6,0-2-0.9c-0.1-0.3-0.1-0.8-0.1-1.5v-3.8h-1.1v-1.3h1.1v-2.7h1.8v2.7h1.6v1.3H290.3z"/>
	<path fill="#4B92DB" d="M300,150.1c-0.9,1.2-2.1,1.9-3.7,1.9c-2,0-3.9-1.2-3.9-4c0-2.5,1.6-3.9,3.7-3.9c2,0,2.8,1.2,3,1.4
		c0.6,0.9,0.8,2.2,0.8,2.9h-5.5c0.2,1.2,0.9,1.9,2.1,1.9c1.2,0,1.7-0.7,1.9-1L300,150.1z M297.9,147c-0.2-1.2-0.9-1.6-1.7-1.6
		c-1,0-1.6,0.6-1.8,1.6H297.9z"/>
	<path fill="#4B92DB" d="M303.1,144.3v1.1c0.2-0.4,0.7-1.3,2.4-1.2v1.8c-0.4,0-1.1,0-1.6,0.4c-0.8,0.6-0.8,1.4-0.8,2.6v2.8h-1.7
		v-7.5H303.1z"/>
	<path fill="#4B92DB" d="M306.6,144.3h1.8v0.9c0.1-0.1,0.3-0.4,0.6-0.6c0.5-0.3,1.1-0.5,1.7-0.5c0.9,0,1.6,0.4,2,0.9
		c0.5,0.6,0.5,1.4,0.5,2.4v4.4h-1.8v-3.8c0-0.6,0-0.9-0.1-1.1c-0.2-0.7-0.6-1-1.2-1s-1.1,0.3-1.4,0.8c-0.3,0.6-0.3,1.3-0.3,1.9v3.3
		h-1.8V144.3z"/>
	<path fill="#4B92DB" d="M314.8,146.5c0-0.4,0.1-0.7,0.3-1.1c0.7-1.3,2.5-1.3,3-1.3c0.7,0,1.6,0.1,2.2,0.5c0.9,0.5,0.9,1.2,0.9,2.1
		v4c0,0.6,0,0.8,0.3,1.2h-2.1c0-0.2,0-0.5,0-0.6c-0.4,0.3-1.2,0.8-2.2,0.8c-1.7,0-2.7-1-2.7-2.3c0-0.4,0.1-0.7,0.2-1
		c0.5-1.1,1.7-1.3,2.4-1.5c1.5-0.3,1.7-0.3,2.3-0.6c0-0.4,0-1.1-1.3-1.1c-0.8,0-1.2,0.2-1.3,0.5c-0.2,0.2-0.2,0.5-0.2,0.7
		L314.8,146.5z M319.4,148c-0.4,0.2-0.8,0.3-1.6,0.4c-0.6,0.1-1.5,0.2-1.5,1c0,0.6,0.5,0.9,1.2,0.9c0.9,0,1.6-0.4,1.8-0.9
		c0.1-0.2,0.1-0.4,0.1-0.7V148z"/>
	<path fill="#4B92DB" d="M325.1,145.5v3.4c0,0.9,0,1.3,0.9,1.3c0.3,0,0.5,0,0.7-0.1v1.5c-0.5,0.1-0.9,0.1-1.3,0.1
		c-0.4,0-1.6,0-2-0.9c-0.1-0.3-0.1-0.8-0.1-1.5v-3.8h-1.1v-1.3h1.1v-2.7h1.8v2.7h1.6v1.3H325.1z"/>
	<path fill="#4B92DB" d="M329.7,141.3v1.8H328v-1.8H329.7z M329.7,144.3v7.5H328v-7.5H329.7z"/>
	<path fill="#4B92DB" d="M335.1,152c-2.3,0-3.9-1.7-3.9-4s1.6-3.9,3.8-3.9c2.1,0,3.9,1.5,3.9,3.9C338.9,150.3,337.4,152,335.1,152z
		 M335,145.7c-1.1,0-1.9,0.9-1.9,2.3c0,1.5,0.9,2.4,2,2.4c1.3,0,2-1.1,1.9-2.4C337,146.7,336.3,145.7,335,145.7z"/>
	<path fill="#4B92DB" d="M340.4,144.3h1.8v0.9c0.1-0.1,0.3-0.4,0.6-0.6c0.5-0.3,1.1-0.5,1.7-0.5c0.9,0,1.6,0.4,2,0.9
		c0.5,0.6,0.5,1.4,0.5,2.4v4.4h-1.8v-3.8c0-0.6,0-0.9-0.1-1.1c-0.2-0.7-0.6-1-1.2-1s-1.1,0.3-1.4,0.8c-0.3,0.6-0.3,1.3-0.3,1.9v3.3
		h-1.8V144.3z"/>
	<path fill="#4B92DB" d="M348.6,146.5c0-0.4,0.1-0.7,0.3-1.1c0.7-1.3,2.5-1.3,3-1.3c0.7,0,1.6,0.1,2.2,0.5c0.9,0.5,0.9,1.2,0.9,2.1
		v4c0,0.6,0,0.8,0.3,1.2h-2.1c0-0.2,0-0.5,0-0.6c-0.4,0.3-1.2,0.8-2.2,0.8c-1.7,0-2.7-1-2.7-2.3c0-0.4,0.1-0.7,0.2-1
		c0.5-1.1,1.7-1.3,2.4-1.5c1.5-0.3,1.7-0.3,2.3-0.6c0-0.4,0-1.1-1.3-1.1c-0.8,0-1.2,0.2-1.3,0.5c-0.2,0.2-0.2,0.5-0.2,0.7
		L348.6,146.5z M353.2,148c-0.4,0.2-0.8,0.3-1.6,0.4c-0.6,0.1-1.5,0.2-1.5,1c0,0.6,0.5,0.9,1.2,0.9c0.9,0,1.6-0.4,1.8-0.9
		c0.1-0.2,0.1-0.4,0.1-0.7V148z"/>
	<path fill="#4B92DB" d="M358.7,141.2v10.6h-1.8v-10.6H358.7z"/>
	<path fill="#4B92DB" d="M365,141.2h3.6c0.6,0,1.2,0,1.8,0.2c1,0.3,2.5,1.2,2.5,3.4c0,1.4-0.7,2.9-2.5,3.3c-0.6,0.1-1.1,0.1-1.8,0.1
		H367v3.6h-2V141.2z M367,142.9v3.7h1.4c0.4,0,0.8,0,1.1-0.1c1.2-0.3,1.3-1.4,1.3-1.8c0-0.8-0.3-1.2-0.5-1.4
		c-0.5-0.4-1.2-0.4-1.8-0.4H367z"/>
	<path fill="#4B92DB" d="M377.5,152c-2.3,0-3.9-1.7-3.9-4s1.6-3.9,3.8-3.9c2.1,0,3.9,1.5,3.9,3.9C381.3,150.3,379.7,152,377.5,152z
		 M377.4,145.7c-1.1,0-1.9,0.9-1.9,2.3c0,1.5,0.9,2.4,2,2.4c1.3,0,2-1.1,1.9-2.4C379.3,146.7,378.6,145.7,377.4,145.7z"/>
	<path fill="#4B92DB" d="M384.5,141.2v10.6h-1.8v-10.6H384.5z"/>
	<path fill="#4B92DB" d="M388.2,141.3v1.8h-1.8v-1.8H388.2z M388.2,144.3v7.5h-1.8v-7.5H388.2z"/>
	<path fill="#4B92DB" d="M392.1,145.5v3.4c0,0.9,0,1.3,0.9,1.3c0.3,0,0.5,0,0.8-0.1v1.5c-0.5,0.1-0.9,0.1-1.3,0.1
		c-0.4,0-1.6,0-2-0.9c-0.1-0.3-0.1-0.8-0.1-1.5v-3.8h-1.1v-1.3h1.1v-2.7h1.8v2.7h1.6v1.3H392.1z"/>
	<path fill="#4B92DB" d="M396.7,141.3v1.8h-1.8v-1.8H396.7z M396.7,144.3v7.5h-1.8v-7.5H396.7z"/>
	<path fill="#4B92DB" d="M403.5,146.9c-0.1-0.5-0.7-1.3-1.7-1.3c-1,0-1.9,0.8-1.9,2.3c0,1.3,0.7,2.3,1.9,2.3c1.1,0,1.6-0.9,1.8-1.5
		l1.5,0.8c-0.6,1.6-2.1,2.3-3.4,2.3c-2.1,0-3.7-1.6-3.7-4c0-2.3,1.6-4,3.8-4c1.9,0,2.8,1.3,3.2,2.1L403.5,146.9z"/>
	<path fill="#4B92DB" d="M406.3,146.5c0-0.4,0.1-0.7,0.3-1.1c0.7-1.3,2.5-1.3,3-1.3c0.7,0,1.6,0.1,2.2,0.5c0.9,0.5,0.9,1.2,0.9,2.1
		v4c0,0.6,0,0.8,0.3,1.2h-2.1c0-0.2,0-0.5,0-0.6c-0.4,0.3-1.2,0.8-2.2,0.8c-1.7,0-2.7-1-2.7-2.3c0-0.4,0.1-0.7,0.2-1
		c0.5-1.1,1.7-1.3,2.4-1.5c1.5-0.3,1.7-0.3,2.3-0.6c0-0.4,0-1.1-1.3-1.1c-0.8,0-1.2,0.2-1.3,0.5c-0.2,0.2-0.2,0.5-0.2,0.7
		L406.3,146.5z M410.9,148c-0.4,0.2-0.8,0.3-1.6,0.4c-0.6,0.1-1.5,0.2-1.5,1c0,0.6,0.5,0.9,1.2,0.9c0.9,0,1.6-0.4,1.8-0.9
		c0.1-0.2,0.1-0.4,0.1-0.7V148z"/>
	<path fill="#4B92DB" d="M416.4,141.2v10.6h-1.8v-10.6H416.4z"/>
	<path fill="#4B92DB" d="M429.5,143h-2.9v8.8h-2V143h-2.9v-1.8h7.8V143z"/>
	<path fill="#4B92DB" d="M436.8,150.1c-0.9,1.2-2.1,1.9-3.7,1.9c-2,0-3.9-1.2-3.9-4c0-2.5,1.6-3.9,3.7-3.9c2,0,2.8,1.2,3,1.4
		c0.6,0.9,0.8,2.2,0.8,2.9h-5.5c0.2,1.2,0.9,1.9,2.1,1.9c1.2,0,1.7-0.7,1.9-1L436.8,150.1z M434.8,147c-0.2-1.2-0.9-1.6-1.7-1.6
		c-1,0-1.6,0.6-1.8,1.6H434.8z"/>
	<path fill="#4B92DB" d="M440,141.2v10.6h-1.8v-10.6H440z"/>
	<path fill="#4B92DB" d="M449,150.1c-0.9,1.2-2.1,1.9-3.7,1.9c-2,0-3.9-1.2-3.9-4c0-2.5,1.6-3.9,3.7-3.9c2,0,2.8,1.2,3,1.4
		c0.6,0.9,0.8,2.2,0.8,2.9h-5.5c0.2,1.2,0.9,1.9,2.1,1.9c1.2,0,1.7-0.7,2-1L449,150.1z M446.9,147c-0.2-1.2-0.9-1.6-1.7-1.6
		c-1,0-1.6,0.6-1.8,1.6H446.9z"/>
	<path fill="#4B92DB" d="M454.1,146.2v1.7h-3.7v-1.7H454.1z"/>
	<path fill="#4B92DB" d="M465.4,148.8c-0.1,0.3-0.4,1-0.9,1.6c-0.8,0.9-1.9,1.6-3.7,1.6c-2.8,0-5-2.1-5-5.6c0-3.6,2.3-5.5,5-5.5
		c3.3,0,4.1,2.5,4.3,3.3l-2,0.5c0-0.2-0.1-0.6-0.4-1c-0.2-0.3-0.8-0.9-1.9-0.9c-1.7,0-2.9,1.4-2.9,3.7c0,2.4,1.3,3.8,2.9,3.8
		c1,0,1.6-0.5,2-1c0.3-0.5,0.5-0.9,0.6-1.1L465.4,148.8z"/>
	<path fill="#4B92DB" d="M470.3,152c-2.3,0-3.9-1.7-3.9-4s1.6-3.9,3.8-3.9c2.1,0,3.9,1.5,3.9,3.9C474.1,150.3,472.5,152,470.3,152z
		 M470.2,145.7c-1.1,0-1.9,0.9-1.9,2.3c0,1.5,0.9,2.4,2,2.4c1.3,0,2-1.1,1.9-2.4C472.2,146.7,471.4,145.7,470.2,145.7z"/>
	<path fill="#4B92DB" d="M475.5,144.3h1.8v0.8c0.6-0.8,1.7-1.1,2.4-1.1s1.6,0.3,2.1,1.2c0.3-0.4,1.1-1.2,2.4-1.2
		c0.8,0,1.5,0.2,2,0.8c0.6,0.7,0.6,1.5,0.6,2.2v4.7h-1.8v-4.1c0-0.7,0.1-1.9-1.3-1.9c-0.6,0-1,0.3-1.3,0.7c-0.3,0.6-0.4,1.2-0.4,1.8
		v3.5h-1.8v-4.2c0-0.5,0-0.7-0.1-1c-0.1-0.5-0.5-0.9-1.2-0.9c-0.5,0-1.1,0.3-1.4,0.9c-0.3,0.6-0.3,1.3-0.3,2v3.1h-1.8V144.3z"/>
	<path fill="#4B92DB" d="M488.6,144.3h1.8v0.8c0.6-0.8,1.7-1.1,2.4-1.1s1.6,0.3,2.1,1.2c0.3-0.4,1.1-1.2,2.4-1.2
		c0.8,0,1.5,0.2,2,0.8c0.6,0.7,0.6,1.5,0.6,2.2v4.7H498v-4.1c0-0.7,0.1-1.9-1.3-1.9c-0.6,0-1,0.3-1.3,0.7c-0.3,0.6-0.4,1.2-0.4,1.8
		v3.5h-1.8v-4.2c0-0.5,0-0.7-0.1-1c-0.1-0.5-0.5-0.9-1.2-0.9c-0.5,0-1.1,0.3-1.4,0.9c-0.3,0.6-0.3,1.3-0.3,2v3.1h-1.8V144.3z"/>
	<path fill="#4B92DB" d="M508.4,144.3v7.5h-1.8V151c-0.3,0.3-1,0.9-2.4,0.9c-1.2,0-1.8-0.5-2.1-0.9c-0.5-0.6-0.5-1.3-0.5-2.5v-4.3
		h1.8v4.3c0,0.3,0,0.6,0.1,0.8c0.2,0.7,0.7,0.9,1.4,0.9c0.8,0,1.2-0.4,1.5-0.8c0.3-0.5,0.3-1,0.3-2v-3.2H508.4z"/>
	<path fill="#4B92DB" d="M510.3,144.3h1.8v0.9c0.1-0.1,0.3-0.4,0.6-0.6c0.4-0.3,1.1-0.5,1.7-0.5c0.9,0,1.6,0.4,2,0.9
		c0.5,0.6,0.5,1.4,0.5,2.4v4.4h-1.8v-3.8c0-0.6,0-0.9-0.1-1.1c-0.2-0.7-0.6-1-1.2-1c-0.6,0-1.1,0.3-1.4,0.8
		c-0.3,0.6-0.3,1.3-0.3,1.9v3.3h-1.8V144.3z"/>
	<path fill="#4B92DB" d="M520.5,141.3v1.8h-1.8v-1.8H520.5z M520.5,144.3v7.5h-1.8v-7.5H520.5z"/>
	<path fill="#4B92DB" d="M527.3,146.9c-0.1-0.5-0.7-1.3-1.7-1.3c-1,0-1.9,0.8-1.9,2.3c0,1.3,0.7,2.3,1.9,2.3c1.1,0,1.6-0.9,1.8-1.5
		l1.5,0.8c-0.6,1.6-2.1,2.3-3.4,2.3c-2.1,0-3.7-1.6-3.7-4c0-2.3,1.6-4,3.8-4c1.9,0,2.8,1.3,3.2,2.1L527.3,146.9z"/>
	<path fill="#4B92DB" d="M530,146.5c0-0.4,0.1-0.7,0.3-1.1c0.7-1.3,2.5-1.3,3-1.3c0.7,0,1.6,0.1,2.2,0.5c0.9,0.5,0.9,1.2,0.9,2.1v4
		c0,0.6,0,0.8,0.3,1.2h-2.1c0-0.2,0-0.5,0-0.6c-0.4,0.3-1.2,0.8-2.2,0.8c-1.7,0-2.7-1-2.7-2.3c0-0.4,0.1-0.7,0.2-1
		c0.5-1.1,1.7-1.3,2.4-1.5c1.5-0.3,1.7-0.3,2.3-0.6c0-0.4,0-1.1-1.3-1.1c-0.8,0-1.2,0.2-1.3,0.5c-0.2,0.2-0.2,0.5-0.2,0.7L530,146.5
		z M534.7,148c-0.4,0.2-0.8,0.3-1.6,0.4c-0.6,0.1-1.5,0.2-1.5,1c0,0.6,0.5,0.9,1.2,0.9c0.9,0,1.6-0.4,1.8-0.9
		c0.1-0.2,0.1-0.4,0.1-0.7V148z"/>
	<path fill="#4B92DB" d="M540.3,145.5v3.4c0,0.9,0,1.3,0.9,1.3c0.3,0,0.5,0,0.8-0.1v1.5c-0.5,0.1-0.9,0.1-1.3,0.1
		c-0.4,0-1.6,0-2-0.9c-0.1-0.3-0.1-0.8-0.1-1.5v-3.8h-1.1v-1.3h1.1v-2.7h1.8v2.7h1.6v1.3H540.3z"/>
	<path fill="#4B92DB" d="M545,141.3v1.8h-1.8v-1.8H545z M545,144.3v7.5h-1.8v-7.5H545z"/>
	<path fill="#4B92DB" d="M550.3,152c-2.3,0-3.9-1.7-3.9-4s1.6-3.9,3.8-3.9c2.1,0,3.9,1.5,3.9,3.9C554.1,150.3,552.6,152,550.3,152z
		 M550.2,145.7c-1.1,0-1.9,0.9-1.9,2.3c0,1.5,0.9,2.4,2,2.4c1.3,0,2-1.1,1.9-2.4C552.2,146.7,551.5,145.7,550.2,145.7z"/>
	<path fill="#4B92DB" d="M555.6,144.3h1.8v0.9c0.1-0.1,0.3-0.4,0.6-0.6c0.5-0.3,1.1-0.5,1.7-0.5c0.9,0,1.6,0.4,2,0.9
		c0.5,0.6,0.5,1.4,0.5,2.4v4.4h-1.8v-3.8c0-0.6,0-0.9-0.1-1.1c-0.2-0.7-0.6-1-1.2-1s-1.1,0.3-1.4,0.8c-0.3,0.6-0.3,1.3-0.3,1.9v3.3
		h-1.8V144.3z"/>
	<path fill="#4B92DB" d="M570.2,142.9v2.5h5.1v1.7h-5.1v2.8h6v1.8h-7.9v-10.6h7.5v1.8H570.2z"/>
	<path fill="#4B92DB" d="M584.3,144.3v9.9h-1.8v-3.2c-0.3,0.3-0.9,0.9-2.2,0.9c-2.1,0-3.3-1.7-3.3-3.9c0-2.8,1.8-4,3.4-4
		c0.8,0,1.6,0.4,2.1,1v-0.8H584.3z M580.7,145.8c-0.9,0-1.8,0.7-1.8,2.3c0,1.3,0.6,2.2,1.8,2.2c1.1,0,1.8-0.8,1.8-2.3
		C582.5,146.3,581.4,145.8,580.7,145.8z"/>
	<path fill="#4B92DB" d="M592.9,144.3v7.5h-1.8V151c-0.3,0.3-1,0.9-2.4,0.9c-1.2,0-1.8-0.5-2.1-0.9c-0.5-0.6-0.5-1.3-0.5-2.5v-4.3
		h1.8v4.3c0,0.3,0,0.6,0.1,0.8c0.2,0.7,0.7,0.9,1.4,0.9c0.8,0,1.2-0.4,1.5-0.8c0.3-0.5,0.3-1,0.3-2v-3.2H592.9z"/>
	<path fill="#4B92DB" d="M596.5,141.3v1.8h-1.8v-1.8H596.5z M596.5,144.3v7.5h-1.8v-7.5H596.5z"/>
	<path fill="#4B92DB" d="M600.2,141.2v10.6h-1.8v-10.6H600.2z"/>
	<path fill="#4B92DB" d="M603.8,141.3v1.8H602v-1.8H603.8z M603.8,144.3v7.5H602v-7.5H603.8z"/>
	<path fill="#4B92DB" d="M607.5,141.2v3.7c0.6-0.6,1.3-0.9,2.2-0.9c1.7,0,3.3,1.6,3.3,3.9c0,2.4-1.6,4-3.4,4c-1,0-1.7-0.6-2.1-1v0.8
		h-1.8v-10.6H607.5z M609.2,145.7c-0.8,0-1.8,0.6-1.8,2.2c0,0.5,0.1,0.8,0.1,1c0.4,1.4,1.6,1.4,1.7,1.4c1.3,0,1.8-1.3,1.8-2.3
		C611.1,146.5,610.2,145.7,609.2,145.7z"/>
	<path fill="#4B92DB" d="M616.2,144.3v1.1c0.2-0.4,0.7-1.3,2.4-1.2v1.8c-0.4,0-1.1,0-1.6,0.4c-0.8,0.6-0.8,1.4-0.8,2.6v2.8h-1.7
		v-7.5H616.2z"/>
	<path fill="#4B92DB" d="M621.4,141.3v1.8h-1.8v-1.8H621.4z M621.4,144.3v7.5h-1.8v-7.5H621.4z"/>
	<path fill="#4B92DB" d="M630.1,144.3v7.5h-1.8V151c-0.3,0.3-1,0.9-2.4,0.9c-1.2,0-1.8-0.5-2.1-0.9c-0.5-0.6-0.5-1.3-0.5-2.5v-4.3
		h1.8v4.3c0,0.3,0,0.6,0.1,0.8c0.2,0.7,0.7,0.9,1.4,0.9c0.8,0,1.2-0.4,1.5-0.8c0.3-0.5,0.3-1,0.3-2v-3.2H630.1z"/>
	<path fill="#4B92DB" d="M632,144.3h1.8v0.8c0.6-0.8,1.7-1.1,2.4-1.1s1.6,0.3,2.1,1.2c0.3-0.4,1.1-1.2,2.4-1.2c0.8,0,1.5,0.2,2,0.8
		c0.6,0.7,0.6,1.5,0.6,2.2v4.7h-1.8v-4.1c0-0.7,0.1-1.9-1.3-1.9c-0.6,0-1,0.3-1.3,0.7c-0.3,0.6-0.4,1.2-0.4,1.8v3.5h-1.8v-4.2
		c0-0.5,0-0.7-0.1-1c-0.1-0.5-0.5-0.9-1.2-0.9c-0.5,0-1.1,0.3-1.4,0.9c-0.3,0.6-0.3,1.3-0.3,2v3.1H632V144.3z"/>
	<path fill="#4B92DB" d="M650.2,148.6c0.3,0.4,1,1.6,3.3,1.6c0.4,0,0.8,0,1.1-0.2c0.8-0.3,0.9-0.9,0.9-1.2c0-0.7-0.5-0.9-0.8-1.1
		c-0.2-0.1-0.3-0.1-1.2-0.3l-1.3-0.3c-0.7-0.2-1-0.2-1.3-0.4c-0.5-0.2-1.8-0.8-1.8-2.6c0-2,1.7-3.3,4.2-3.3c2.3,0,3.5,1.1,4.3,2.1
		l-1.6,1.2c-0.4-0.5-1-1.6-2.7-1.6c-1.1,0-2,0.5-2,1.3c0,0.9,1,1.1,2,1.3l1.1,0.2c1.4,0.3,3.4,0.9,3.4,3.2c0,2.4-2.2,3.4-4.5,3.4
		c-0.6,0-1.2-0.1-1.9-0.2c-0.7-0.2-2-0.7-2.7-2L650.2,148.6z"/>
	<path fill="#4B92DB" d="M665,144.3l-1.9,6.5l-0.4,1.4c-0.5,1.6-1.1,2.1-2.5,2.1c-0.6,0-0.9-0.1-1.1-0.1v-1.6c0.2,0,0.3,0,0.5,0
		c0.1,0,0.5,0,0.8-0.2c0.2-0.1,0.4-0.5,0.4-0.6l-2.7-7.7h1.9l1.7,5.6l1.4-5.6H665z"/>
	<path fill="#4B92DB" d="M666.7,149.5c0.5,0.6,1.1,1,2.2,1s1.5-0.5,1.5-0.9c0-0.5-0.5-0.6-0.8-0.6c-0.3-0.1-1.5-0.3-1.8-0.4
		c-1.8-0.4-2.1-1.5-2.1-2.1c0-1.3,1.2-2.4,3.2-2.4c1.1,0,2,0.4,2.5,0.7c0.4,0.2,0.6,0.5,0.8,0.7l-1.3,1.2c-0.2-0.4-0.7-1.1-2-1.1
		c-0.9,0-1.2,0.4-1.2,0.8c0,0.5,0.6,0.7,1.5,0.9c1.6,0.3,2,0.4,2.5,0.7c0.5,0.4,0.8,1,0.8,1.6c0,1.2-1.1,2.6-3.4,2.6
		c-1.3,0-2.7-0.4-3.6-1.3L666.7,149.5z"/>
	<path fill="#4B92DB" d="M675.9,145.5v3.4c0,0.9,0,1.3,0.9,1.3c0.3,0,0.5,0,0.8-0.1v1.5c-0.5,0.1-0.9,0.1-1.3,0.1
		c-0.4,0-1.6,0-2-0.9c-0.1-0.3-0.1-0.8-0.1-1.5v-3.8H673v-1.3h1.1v-2.7h1.8v2.7h1.6v1.3H675.9z"/>
	<path fill="#4B92DB" d="M685.6,150.1c-0.9,1.2-2.1,1.9-3.7,1.9c-2,0-3.9-1.2-3.9-4c0-2.5,1.6-3.9,3.7-3.9c2,0,2.8,1.2,3,1.4
		c0.6,0.9,0.8,2.2,0.8,2.9H680c0.2,1.2,0.9,1.9,2.1,1.9c1.2,0,1.7-0.7,2-1L685.6,150.1z M683.6,147c-0.2-1.2-0.9-1.6-1.7-1.6
		c-1,0-1.6,0.6-1.8,1.6H683.6z"/>
	<path fill="#4B92DB" d="M687,144.3h1.8v0.8c0.6-0.8,1.7-1.1,2.4-1.1s1.6,0.3,2.1,1.2c0.3-0.4,1.1-1.2,2.4-1.2c0.8,0,1.5,0.2,2,0.8
		c0.6,0.7,0.6,1.5,0.6,2.2v4.7h-1.8v-4.1c0-0.7,0.1-1.9-1.3-1.9c-0.6,0-1,0.3-1.3,0.7c-0.3,0.6-0.4,1.2-0.4,1.8v3.5h-1.8v-4.2
		c0-0.5,0-0.7-0.1-1c-0.1-0.5-0.5-0.9-1.2-0.9c-0.5,0-1.1,0.3-1.4,0.9c-0.3,0.6-0.3,1.3-0.3,2v3.1H687V144.3z"/>
</g>
<g>
	<g>
		<g>
			<path id="path51_8_" fill="#4B92DB" d="M197.3,102.4l-1.6-0.9c-3.3,6.8-7.6,12.9-12.8,18.3l-9.1-9.1c4.4-4.6,8-9.8,10.7-15.4
				l-1.6-0.8c-2.6,5.6-6.1,10.6-10.4,15l-8.2-8.2c3.5-3.7,6.3-7.8,8.3-12.3l-1.5-0.8c-2,4.4-4.7,8.5-8,12l-9.1-9.2
				c2.5-2.7,4.5-5.7,5.8-9.1l-1.5-0.8c-1.3,3.3-3.2,6.2-5.5,8.7l-8.2-8.2c2.4-2.6,3.7-5.9,3.9-9.4h11.7c-0.1,3.2-0.7,6.2-1.8,9
				l1.5,0.8c1.2-3.1,1.9-6.4,2-9.8h12.8c-0.1,5.7-1.4,11.1-3.6,16l1.5,0.8c2.3-5.2,3.6-10.9,3.8-16.8h11.7c-0.1,8-2,15.6-5.2,22.4
				l1.6,0.8c3.4-7.2,5.2-15.1,5.3-23.2h12.8c-0.1,10.5-2.6,20.5-6.9,29.4L197.3,102.4c4.6-9.6,7.1-20.1,7.1-31.1
				c0-9.3-1.8-18.4-5.2-26.7l-1.6,0.7c3.2,7.9,4.9,16.4,5,25.2h-12.8c-0.1-7-1.5-13.8-4-20.1l-1.6,0.7c2.4,6.1,3.8,12.7,3.9,19.4
				h-11.7c-0.1-5.1-1.1-10.2-2.9-14.8l-1.6,0.7c1.7,4.4,2.7,9.2,2.8,14.1h-12.8c-0.1-3.2-0.7-6.2-1.7-9.1l-1.6,0.7
				c1,2.7,1.5,5.5,1.6,8.4h-11.7c-0.2-3.5-1.6-6.8-3.9-9.4l8.2-8.2c2.6,2.7,4.5,5.8,5.7,9.3l1.6-0.7c-1.3-3.6-3.4-6.9-6.1-9.8
				l9.1-9.1c3.9,4,6.8,8.7,8.8,13.8l1.6-0.7c-2.1-5.3-5.1-10.2-9.2-14.3l8.2-8.2c5.1,5.2,9,11.4,11.7,18l1.6-0.7
				c-2.7-6.8-6.7-13.1-12-18.5l9.1-9.1c6.4,6.6,11.4,14.2,14.7,22.5l1.6-0.7c-3.6-8.8-8.8-16.8-15.7-23.7c-7-6.8-15-12.1-23.8-15.7
				l-0.6,1.6c8.3,3.4,16,8.3,22.6,14.7l-9.1,9.1c-5.3-5.1-11.5-9.2-18.2-11.9l-0.6,1.6c6.5,2.6,12.4,6.5,17.6,11.5l-8.2,8.2
				c-4-3.9-8.6-6.8-13.6-8.9l-0.6,1.6c4.8,2,9.2,4.8,13,8.5l-9.1,9.1c-2.6-2.4-5.5-4.3-8.6-5.6l-0.6,1.6c3,1.2,5.7,3,8.1,5.2
				l-8.2,8.2c-2.6-2.4-5.9-3.7-9.4-3.9V44.3c3.4,0.1,6.6,0.8,9.6,2.1l0.6-1.6c-3.2-1.3-6.7-2.1-10.2-2.2V29.7
				c5.2,0.1,10.3,1.2,14.9,3.1l0.6-1.6c-4.9-2-10.1-3.1-15.6-3.2V16.3c6.9,0.1,13.6,1.5,19.8,4l0.6-1.6c-6.4-2.6-13.3-4-20.4-4.1
				V1.8c8.8,0.1,17.2,1.8,25.1,5l0.6-1.6C151.4,1.8,142.4,0,133.1,0c-11.5,0-22.3,2.7-31.9,7.6l0.8,1.5c9.3-4.6,19.6-7.2,30.2-7.3
				v12.8c-8.7,0.1-16.9,2.3-24.3,5.9l0.8,1.5c7.2-3.6,15.2-5.5,23.5-5.7v11.7c-6.5,0.1-12.6,1.7-18.1,4.3l0.8,1.5
				c5.3-2.6,11.2-4,17.3-4.1v12.9c-4,0.1-7.9,1.1-11.3,2.7l0.8,1.5c3.3-1.5,6.8-2.4,10.6-2.5v11.7c-1.8,0.1-3.5,0.5-5.1,1.2l0.8,1.5
				c1.6-0.7,3.4-1,5.2-1c3.7,0,7.1,1.4,9.7,4s4,6,4,9.7c0,7.6-6.1,13.7-13.7,13.7c-3.7,0-7.1-1.4-9.7-4c-2.6-2.6-4-6-4-9.7
				s1.4-7.1,4-9.7c1.3-1.3,2.8-2.3,4.5-3l-0.8-1.5c-1.6,0.7-3,1.6-4.3,2.7l-8.2-8.2c2.1-2,4.5-3.6,7.1-4.8l-0.8-1.5
				c-2.8,1.3-5.3,3.1-7.5,5.1l-9.1-9.1c3.2-3.1,6.8-5.5,10.7-7.4l-0.8-1.5c-4.1,2-7.8,4.6-11.1,7.7l-8.2-8.2c4.1-4,8.9-7.3,13.9-9.8
				l-0.8-1.5c-5.3,2.6-10.1,6-14.3,10.1l-9.1-9.1c5.2-5.1,11.1-9.3,17.5-12.4l-0.8-1.5c-13.9,7-25.2,18.3-32.1,32.3l1.5,0.8
				c3.2-6.5,7.4-12.6,12.7-17.9l9.1,9.1c-4.2,4.3-7.8,9.4-10.5,14.9l1.5,0.8C86,42.3,89.5,37.3,93.7,33l8.2,8.2
				c-3.3,3.5-6.1,7.5-8.1,11.9l1.5,0.8c1.9-4.2,4.5-8.1,7.8-11.5l9.1,9.1c-2.3,2.5-4.2,5.3-5.6,8.5l1.5,0.8c1.2-3,3-5.7,5.3-8.1
				l8.2,8.2c-2.3,2.5-3.7,5.8-3.9,9.4h-11.7c0.1-3.3,0.8-6.5,2.1-9.5l-1.5-0.8c-1.4,3.2-2.2,6.7-2.3,10.4H91.5
				c0.1-5.8,1.4-11.4,3.8-16.5L93.8,53c-2.5,5.3-3.9,11.1-4,17.3H78.2c0.1-8,2-15.8,5.3-22.8L82,46.7c-3.5,7.2-5.4,15.2-5.6,23.7
				H63.6c0.1-10.5,2.6-20.6,7.1-29.8l-1.5-0.8c-4.7,9.5-7.3,20.1-7.3,31.4c0,6.9,1,13.6,2.9,20.1l1.7-0.4c-1.8-6-2.7-12.3-2.8-18.8
				h12.8c0.1,5.4,0.9,10.7,2.4,15.7l1.7-0.4c-1.5-4.9-2.3-10-2.4-15.2h11.7c0.1,4.3,0.8,8.4,2.1,12.4l1.7-0.4c-1.2-3.8-1.9-7.9-2-12
				h12.8c0.1,3.1,0.7,6,1.7,8.8l1.7-0.4c-1-2.7-1.5-5.5-1.6-8.4h11.7c0.2,3.5,1.6,6.8,3.9,9.4l-8.2,8.2c-2.6-2.7-4.5-5.8-5.7-9.3
				l-1.7,0.4c1.3,3.7,3.4,7.1,6.2,10.1l-9.1,9.1c-4.4-4.6-7.7-10.1-9.6-16l-1.7,0.4c2,6.2,5.4,12,10,16.8l-8.2,8.2
				c-6.1-6.3-10.6-13.9-13.1-22.2l-1.7,0.4c2.6,8.5,7.2,16.4,13.6,22.9l-9.1,9.1c-8-8.2-13.8-18.1-16.9-28.9l-1.7,0.4
				c3.3,11.4,9.4,21.7,18,30.3c5.8,5.8,12.4,10.5,19.7,13.9l0.9-1.5c-6.8-3.3-13.1-7.6-18.7-13l9.1-9.1c4.7,4.6,10.1,8.2,15.9,10.9
				l0.9-1.5c-5.7-2.6-11-6.1-15.6-10.6l8.2-8.2c3.9,3.7,8.3,6.6,13.1,8.7l0.9-1.5c-4.6-2-9-4.8-12.7-8.4l9.1-9.1
				c2.9,2.8,6.3,4.8,10,6.1l0.9-1.5c-3.6-1.2-6.8-3.2-9.7-5.8l8.2-8.2c2.6,2.4,5.9,3.7,9.4,3.9v11.7c-2.8-0.1-5.4-0.6-8-1.5
				l-0.9,1.5c2.8,1,5.8,1.6,8.9,1.7v13c-5.3-0.1-10.5-1.2-15.2-3.2l-0.9,1.5c5,2.1,10.5,3.3,16.1,3.4v11.7c-7.7-0.1-15-1.8-21.8-4.9
				l-0.9,1.5c7,3.2,14.7,5,22.7,5.1v12.8c-10.2-0.1-20.1-2.4-29-6.7l-0.9,1.5c9.5,4.5,19.9,6.9,30.7,6.9c11.4,0,22.3-2.7,32.1-7.6
				l-0.8-1.6c-9.2,4.6-19.5,7.3-30.4,7.5V128c8.7-0.1,17-2.2,24.6-6l-0.8-1.6c-7.2,3.6-15.2,5.7-23.8,5.8v-11.7
				c6.5-0.1,12.8-1.7,18.5-4.5l-0.8-1.6c-5.3,2.7-11.3,4.2-17.7,4.3V100c4.1-0.1,8.1-1.1,11.8-2.9l-0.8-1.5c-3.3,1.6-7,2.6-11,2.7
				V86.7c3.5-0.2,6.8-1.6,9.4-3.9l8.2,8.2c-2,1.9-4.2,3.4-6.7,4.6l0.8,1.5c2.6-1.3,5-2.9,7.1-4.9l9.1,9.1c-3,2.9-6.5,5.3-10.3,7.2
				l0.8,1.6c3.9-1.9,7.5-4.5,10.7-7.6l8.2,8.2c-4,3.9-8.6,7.1-13.6,9.7l0.8,1.6c5.1-2.6,9.8-5.9,14-10l9.1,9.1
				c-5,4.9-10.9,9.1-17.2,12.3l0.8,1.6c6.7-3.4,12.8-7.8,18.3-13.2C189.3,116,193.9,109.4,197.3,102.4L197.3,102.4z"/>
			<polygon id="polygon59_9_" fill="#4B92DB" points="136.8,54.8 136.8,55.3 137.3,55.3 137.2,54.8 			"/>
			<rect id="rect61_9_" x="136.2" y="54.1" fill="#4B92DB" width="0.6" height="0.4"/>
			<polygon id="polygon63_9_" fill="#4B92DB" points="135.6,54 135.7,53.6 135.2,53.5 135.1,53.9 			"/>
			<polygon id="rect65_9_" fill="#4B92DB" points="134.7,53.8 134.2,53.7 134.3,53.3 134.8,53.3 			"/>
			<rect id="rect67_9_" x="130.6" y="53.2" fill="#4B92DB" width="0.6" height="0.4"/>
			<polygon id="polygon69_9_" fill="#4B92DB" points="129.8,54.2 129.9,53.7 129.4,53.6 129.3,54.1 			"/>
			<polygon id="rect71_9_" fill="#4B92DB" points="129.4,54.7 128.8,54.6 128.9,54.2 129.5,54.3 			"/>
			<polygon id="rect73_9_" fill="#4B92DB" points="128.3,55.3 128.3,54.8 128.7,54.8 128.8,55.2 			"/>
			<polygon id="polygon75_9_" fill="#4B92DB" points="71.7,99.3 71.3,99.3 71.3,100.1 71.9,100.1 71.9,101 72.3,101 72.3,99.9 
				71.7,99.7 			"/>
			<polygon id="polygon77_9_" fill="#4B92DB" points="75.7,104.7 75.4,104 74.9,102.7 76,103.2 76.3,104.2 76.8,104.6 77.3,105.7 
				77.1,106.2 76.3,105.5 			"/>
			<polygon id="polygon79_9_" fill="#4B92DB" points="91.9,125.1 91.3,124.2 92.2,124.4 93.1,125.1 93.5,126.1 92.9,126.4 92.7,126 
				91.9,125.7 			"/>
			<path id="path81_9_" fill="#4B92DB" d="M130.9,59.5h-0.8l-0.1-1.6l0.4-0.3v-0.8h-2.5l-0.1-0.8l0.4-0.2l-0.6-0.2l-0.5,0.6
				l-0.1,0.7l-0.7,0.1v0.4h-0.5v1l-2,1.7l-4-0.1c-0.3,0.7-1-0.1-1-0.1c-0.1-0.4-1.2,0-1.2,0c0,0.8-1.4-0.4-1.4-0.4l-2.5-1.8
				c-1.4-1.3-3.6,0.4-3.7,0.7c0.1,1-1.7,0.2-1.7,0.2s-1.4-0.4-1.7,0.1c-0.2,0.6-1.2,0.4-1.2,0.4l-0.1,0.3l-0.7,0.1l-0.1,0.4
				l-0.9,0.1l2.2-0.1c0.6-0.1-0.2,1.2-0.6,1.2l-1,0.1l-0.4,0.4H103l-0.4,0.6l-1.4-0.1c0,0-0.8,0.7-0.7,0.9c0.1,0.2-0.1,0.9-0.4,0.9
				c-0.2,0-0.6,0.7-0.5,0.9c0.1,0.2-0.4,1-0.4,1l-0.1,0.7l-0.4,0.1v2l-0.9,0.6V70l-1.3,1.4l0.1,1.2l-1.1,1.2l0.1,1.2l-0.6,0.2
				l-0.1,0.5l-0.3,1.5l0.7,0.1c0.4-0.1,0.3,1,0,1.1s-1.1,0.4-0.6,0.7c0.4,0.3-1.2,0.2-1.2-0.2c0-0.4-0.9-0.8-1.1-0.7
				c-0.2,0.1-0.6-0.7-0.6-0.7c-0.8-0.8-3.2,0.1-3.2,0.1l-0.4,1.2c-0.8,0.1-1.3,1.5-1.3,1.5c-0.6,0.2-1.2,1-0.9,1.2
				c0.2,0.2-0.4,0.3-0.4,0.3v1.6l-0.4,0.5l0.1,1.8c0.4,0,0.4,0.8,0.4,0.8c-0.7,0.1-0.6,1-0.6,1l-1.5,0.5l-0.3,0.4l-1.9-0.1l-0.5,0.5
				l-0.5-0.5H77l-0.1-0.4l-0.7-0.1l-0.1-0.8L75,87l-0.2,0.4l-1.2,0.1c0.1,0.7-1.2,1.8-1.3,1.5c-0.1-0.3-0.9-1.1-0.6-1.2
				c0.4-0.1,1.3-0.3,1.3-0.3V87l-2.7-0.1l-0.3,0.4l-1.1,0.1v1.2l-0.5,0.1c-0.4,0.2,0.1,1,0.1,1c0.5,0.5-0.1,1.3-0.1,1.3
				c-0.4,0.4,0.4,1.2,0.4,1.2c0.6,0.1-0.4,0.6-0.4,0.6c0.1,0.7,0.6,1,0.6,1c-0.4,0.7,0.3,1.1,0.3,1.1l0.1,1.2l0.5,0.3v0.8l0.3,0.5
				h1.2l-0.1-1.8c-1-1.2,0.9-1.5,0.9-1c0.1,0.4,0.9,0.7,0.9,0.7c0.1,1.1,1.4,1.8,1.7,0.7c0.4-1.1,0.6-0.4,0.9,0.1s1.6,1.8,1.6,1.8
				h1.1l0.1,1c1.2-0.1,1.6,0.1,2.1,1.8c0.5,1.7,1.9,2.1,1.9,2.1l1-0.1c0-0.9,1,0.1,1,0.6c0,0.4,1.9,2.1,1.9,2.1l1.9,0.4l1.8,1.5
				l1.4-0.1h0.6c0.4-1.2,2.1,0.1,2.2,0.5s1.3,1.2,1.4,0.8c0.1-0.4,0.9-0.1,1.1,1c0.1,1.1,0.6,0.9,0.6,0.9l4.1-0.1l1.4-1.2l3.7-0.1
				c1.9-0.1,0.7-2.6,0.4-2.6c-0.6-0.5,0.2-2.6,0.2-2.6l-5.3-4.9c-1.2,0-0.1-1.8-0.1-1.8c0.9-0.6-0.2-1.5-0.2-1.5
				c0.1-0.9-0.5-1.9-0.5-1.9c-1.3-0.9-0.9-2.6-0.9-2.6v-1.2c-1.1-1,0.4-1.2,0.4-1.2c0.5-0.9-0.4-1.5-0.4-1.5l-0.1-1L99,86.3
				l-0.1-3.4l-2.6-3.7c-0.5-0.1-0.1-1-0.1-1c0.6-0.4-0.1-1.2-0.1-1.2l-0.1-1.6l1.5-0.1l0.4-0.6h0.7l-0.1-1.9c0.4-1,1.2-0.4,1.2-0.4
				l1,0.1l0.6-1.1l0.1-0.9l-0.8-0.1c-0.9-0.5-0.4-2.4-0.4-2.4c1.4-2.1,3-0.9,3-0.9l1-0.1c1.5,1,0.1,2.9,0.1,2.9
				c-0.3,0.4-0.1,1.8-0.1,1.8l0.4,2.3l-0.9,0.8c-0.8,0.4-0.8,1.5,0.1,1.7c0.6,0.1,0.4,1.5-0.5,0.5c-1.3,0,0.7,1.2,0.1,0.9
				c1.3,0.7,1-0.6,1-0.6l1.7-1.4c0.6-0.5,1.8,1.1,1.8,1.3s2.9,0.1,2.9,0.1c0.8,0.5,1.1,1.8,1.1,1.8c0.8-1,2.5-0.1,1.2,0.5
				c1.2,0.7,1.2,1.4,1.2,1.4c0.9-0.3,0.9,0.4,0.9,0.7c0,0.2,0.3-1.1,0.3-1.1c-1.1-0.8,1.4-1.1,0.7,0.4l-0.4,0.7l0.7,0.6l0.1,1.7
				c1.6-0.1,1.2-2.1,1.2-2.1l0.7-0.1c0-0.7,0.5-0.3,0.5-0.3c-0.5-2.5,1.2-2.9,1.2-2.9c0.9-0.2,1-2.2,1-2.2c-0.6-0.3-0.3-1.3,0.4-0.4
				c0.7,0.9-0.4-1.8-0.4-1.8l-0.6-0.5l-0.8-0.1l-0.1-0.8h-1.3l-0.2,1l-0.5,0.1l-0.1-0.3l-0.2,0.8h-1.3l-0.1-0.9l0.8-0.2l0.3-0.4
				l0.2-1.2h0.9l1.2-0.4c0.1-1.2,0.7-1,0.7-1l0.4,0.4l0.6,0.5l0.1,0.4l-0.4,0.2l-0.1,0.6l0.2,0.8h0.6c0.2-1.2,1.7-1.2,2.2-0.4l0.4-1
				c-1-0.5,0-1.3,0.3-1s1-1,1-1s0.5,0.7,0-0.2c-0.5-0.9,0.4-1.3,0.4-1.3c-0.1-0.9,0.9-0.7,0.9-0.7l0.1-1.2l-1-0.1
				c-0.2,1-1.1,0.1-0.6-0.1c0.4-0.2,0.9-0.7,0.9-0.7v-0.7l0.4-0.1l0.1-0.7h1.1l0.9-0.4l0.2-0.4l1-0.1l1.4-1.3l-0.1-0.6
				c-0.9,0,0-0.7,0-0.7L130.9,59.5L130.9,59.5z"/>
			<path id="path83_9_" fill="#4B92DB" d="M101.9,73.9l-1.3-0.1l0.1,0.5h0.4c0.6,1,0.1,3.5,0.1,3.5s-0.9,0.1-1-0.4
				c-0.1-0.4-0.5,1-0.2,1.2c0.3,0.2,1.3,0,1.4,0.8c0.1,0.8,0.6-0.5,0.6-0.5L101.9,73.9L101.9,73.9z"/>
			<polygon id="polygon85_9_" fill="#4B92DB" points="101.4,80.3 100.6,79.8 100.6,81.6 101.8,83.1 102.2,82.1 102.4,81.5 
				101.9,81.2 101.9,80.1 102.4,80.1 102.4,79.5 			"/>
			<polygon id="polygon87_9_" fill="#4B92DB" points="102.5,84 102,84.1 101.9,84.6 102.5,84.7 			"/>
			<polygon id="polygon89_9_" fill="#4B92DB" points="101.9,87.7 101.2,87.8 101.2,88.3 101.9,88.2 			"/>
			<path id="path91_9_" fill="#4B92DB" d="M102.7,86c0.2,0,0.3-0.1,0.3-0.3c0-0.2-0.1-0.3-0.3-0.3c-0.2,0-0.3,0.1-0.3,0.3
				C102.4,85.8,102.5,86,102.7,86z"/>
			<ellipse id="circle93_9_" fill="#4B92DB" cx="103.2" cy="87.2" rx="0.3" ry="0.3"/>
			<ellipse id="circle95_9_" fill="#4B92DB" cx="103.2" cy="78.9" rx="0.3" ry="0.3"/>
			<polygon id="polygon97_9_" fill="#4B92DB" points="126.8,72.3 127,71.5 127,70.8 127.3,70.4 128.2,70 128.2,68.6 127.8,68.6 
				127.7,68.1 126.9,68 126.7,68.4 126.4,68.4 126.3,69 126.7,69 126.8,69.4 126.5,69.7 126.4,70.1 125.8,70.2 124.5,71.5 124.4,72 
				124.1,72.6 123.6,73.6 122.2,73.7 121.9,75 122.1,76.1 123.3,76.6 123.5,75.9 123.9,75.7 124,75 124.3,74.5 124.7,73.9 
				124.9,73.4 125.6,72.9 126.5,72.8 			"/>
			<path id="path99_9_" fill="#4B92DB" d="M129.7,73.1v-1l-0.1-1l-1.1-0.5l-0.8,0.7l-0.1,1V73l-0.7,0.1l-0.1,2l-0.6,0.2l0.1,0.7
				l-0.8,0.2l-0.8,0.2l-0.1,1l-0.6,0.4l-0.3,0.9l-0.4,2.1c0,0,0.7,1.2,1,0.7c0.4-0.6,0.9-0.7,0.9-0.7l0.2-0.5l1.9,0.1
				c0.1-0.8,1.1-0.5,1.1-0.1c0,0.4,0.7,0.1,0.7,0.1l0.5-0.8h0.8l0.1-0.9l0.4-0.2v-1.3c1.2-0.4,1-1.5,1-1.5l0.3-0.4l-0.1-0.5
				c-0.6-0.2-0.3-0.7,0.1-0.6c0.4,0.1-0.5-0.7-0.5-0.7c-0.4,0.4-0.8-0.4-0.8-0.4L129.7,73.1L129.7,73.1z"/>
			<path id="path101_9_" fill="#4B92DB" d="M130.9,81.9c-0.1,0.9-1.2,1.2-1.2,1.2l-0.8-0.2l-0.4-0.4l-0.1-1l0.6-0.1l0.1,0.4
				L130.9,81.9L130.9,81.9z"/>
			<path id="path103_9_" fill="#4B92DB" d="M134.7,77.2c0.2,0.6,0.1-1,0.4-1c0.3,0.1,0.1-1,0.1-1l-1.3,1
				C134.6,76.3,134.6,76.9,134.7,77.2L134.7,77.2z"/>
			<path id="path105_9_" fill="#4B92DB" d="M138.5,73.4c0.3,0.7,0.2,1.6,1.3,2.3c0.4,0.2-0.2,0.7-0.6,0.5c-0.4-0.2-1.4-1.8-1.4-1.8
				v-1C138.1,72.9,138.4,73.1,138.5,73.4L138.5,73.4z"/>
			<polygon id="polygon107_9_" fill="#4B92DB" points="139.1,95.2 138.6,95.6 138.8,95.8 139,96.2 139.5,95.4 			"/>
			<line id="line109_9_" fill="none" x1="136.7" y1="94.4" x2="136.7" y2="95.3"/>
			<polygon id="polygon111_9_" fill="#4B92DB" points="147.7,93 147.5,92.6 146.9,93 147.1,93.4 			"/>
			<path id="path113_9_" fill="#4B92DB" d="M167.9,108.6l0.7,0.3l0.1,1.2c0.9,0.9,3.7,0.1,3.7-0.1c0-0.2-0.1-2.7-0.1-2.7l-0.4-0.4
				l-0.1-1.8c0.3-1-1.4-2.3-1.5-2.1c-0.1,0.3-1.1,0.1-1.1,0.4s-0.6,1.8-0.3,2.3c0.3,0.5-0.2,0.5-0.3,1
				C168.5,107.3,167.8,108.2,167.9,108.6L167.9,108.6z"/>
			<path id="path115_9_" fill="#4B92DB" d="M166.4,105.7c-0.1,0.6-0.6,0.9-0.9,0.7c-0.3-0.2,0.4,0.4,0.5,0.7c0.1,0.3,0.6,0.3,0.7,0
				c0.1-0.3,0.1-1,0.2-1.2C167,105.5,166.4,105.4,166.4,105.7L166.4,105.7z"/>
			<rect id="rect117_9_" x="163" y="92.3" fill="#4B92DB" width="0.5" height="1.4"/>
			<path id="path119_9_" fill="#4B92DB" d="M170.5,78.2c-0.3-0.4,1.4-1.2,1.7-0.3c0.3,0.9,0,0.7-0.3,0.7
				C171.6,78.5,170.9,78.8,170.5,78.2L170.5,78.2z"/>
			<polygon id="polygon123_9_" fill="#4B92DB" points="171.9,68.9 172.7,69 172.8,68.6 172,68.5 			"/>
			<polygon id="polygon125_9_" fill="#4B92DB" points="170.1,69.8 170.5,69.7 170.3,69.3 170.2,69.1 170,69.2 169.5,69.5 169,69.2 
				168.8,69.6 169.3,70 169.5,70 169.6,70 170,69.7 			"/>
			<path id="path127_9_" fill="#4B92DB" d="M172.7,52h-1.1c0,0,0.4,0.1-0.6-0.8c-1-1-1.7,0.2-1.7,0.2l-1.2,0.1v1.2l-0.6,0.2l0.1,0.7
				l0.8-0.1c0,0,0,0.9,0.2,0.5c0.2-0.4,2,0.1,1.9,1c-0.1,0.4,1.8,1.3,1.6,2.5c0.9,0.1,0.7,1.1,0.7,1.1l1.2,0.1l0.4-0.7l0.4,0.1v-0.4
				l-0.8-0.2l-0.1-2.3l-0.5-0.4l0.1-0.6l-0.6-0.2l0.3-1L172.7,52L172.7,52z"/>
			<path id="path129_9_" fill="#4B92DB" d="M175.8,59.4l-0.6-0.1l-1.3,0.2l-0.7,1.4c0,0,0.4,0.2,0.6,0.7c0.3,0.5,0.4,3.5-0.4,4
				c-0.9,0.5,0.1,0.2,0.1,0.2l-0.1,1.6c0.2,0.7,0.6,0.4,0.8,0c0.2-0.4,0.4-0.4,0.7-0.8c0.3-0.4,0.7-1,0.8-1.5
				c0.1-0.5,0.4-1.3,0.2-1.5c-0.2-0.2,0.2-1.2,0.2-1.2s0.3-0.6,0-1.2c-0.3-0.6,0.1-1.2,0.3-1.5L175.8,59.4L175.8,59.4z"/>
			<polygon id="rect133_9_" fill="#4B92DB" points="176.7,62.4 176.8,61.8 177.2,61.9 177.2,62.4 			"/>
			<polygon id="rect135_9_" fill="#4B92DB" points="176.7,64.4 176.3,64.2 176.5,63.8 176.9,64 			"/>
			<path id="path137_9_" fill="#4B92DB" d="M176.1,58.6l-0.3-0.7c0,0,0-0.6,0.1-0.9c0.1-0.3-0.3-0.6-0.5-0.7c-0.2-0.1-0.1-0.7-0.2-1
				c-0.1-0.3-0.6-0.5-0.6-0.5s-0.1-1.1-0.1-1.3c0-0.2-0.6-0.5-0.4-0.7c0.2-0.2,0.4-0.5,0.6-0.7c0.2-0.1-0.2-1.2,0.1-1
				c0.4,0.2,0.4,0.6,0.5,0.9c0.1,0.3-0.1,1.3,0.3,1.5c0.4,0.2-0.1,1,0.5,1s0.2,1.4,0.2,1.4s-0.1,1,0.2,1.1c0.4,0.1,0.1,1.8,0.1,1.8
				L176.1,58.6L176.1,58.6z"/>
			<path id="path139_9_" fill="#4B92DB" d="M171.4,46.8c0.2,0.3,0.6,0.5,0.6,0.8c0,0.3-0.1,0.5,0.3,0.6c0.4,0.1,0.7-0.1,0.9,0.3
				c0.1,0.4,0.1,1,0.1,1.2c-0.1,0.3,0.1,0.7,0.4,0.7c0.4,0,0.4,0.1,0.4,0.3c0,0.2,0.4-0.8,0.4-0.8c-0.4-0.3-0.7-1-0.7-1
				s-0.4-1-0.4-1.2s-0.5-0.3-0.7-0.4c-0.2-0.1-0.6-0.7-0.6-0.7L171.4,46.8L171.4,46.8z"/>
			<path id="path141_9_" fill="#4B92DB" d="M172.1,46.1c-0.2-0.3-0.4-0.5-0.7-0.7c-0.3-0.1-0.5-0.3-0.8-0.3s-0.6-0.3-0.4-0.7
				c0.1-0.4-0.2-0.5-0.2-0.8s0.2-0.3,0.6-0.1c0.4,0.2,0.3,0.3,0.6,0.7c0.3,0.4,0.4,0.7,0.7,0.7c0.3-0.1,0.5,0.7,0.8,0.4
				c0.3-0.2,0.2,0.5,0.2,0.5L172.1,46.1L172.1,46.1z"/>
			<path id="path143_9_" fill="#4B92DB" d="M163.7,54.4c0.4,0.4-2.2,0.3-2.2,0s0.2-1.3,0.9-1.1c0.6,0.2,0.7-1.3,0.7-1.3
				s-0.6,0.1-0.1-0.2c0.5-0.3,0-0.7-0.2-1c-0.2-0.2-0.4-0.6-0.4-0.6h1c0.4-0.3,0.6-1.7,0.6-1.7c0.9,0.3,1.3-0.3,1.3-0.3
				s0.1,0.4,0.4,0.8c0.3,0.4-0.7,0.5-0.4,0.7c0.4,0.2,0.5,0.9,0.4,1.1c-0.1,0.2-0.9,0.1-0.9-0.2s-0.3,0.4,0,0.7
				c0.3,0.4-0.4,0.9-0.5,0.9s-1.1,0.1-0.3,0.6c0.8,0.4,1.7,0.2,1.7,0.2s0.6-0.1,0.9,0.3c0.2,0.4-0.1,0.4-0.4,0.4
				c-0.4,0-2.1-0.1-2.1-0.1S163.5,54.2,163.7,54.4L163.7,54.4z"/>
			<path id="path145_9_" fill="#4B92DB" d="M159.1,55c0.4-0.1,1.2-0.1,1.4,0.1c0.1,0.2-0.5,0.5-0.5,0.5l-0.9,0.1
				C158.8,55.4,158.7,55.1,159.1,55L159.1,55z"/>
			<path id="path147_9_" fill="#4B92DB" d="M168.4,48.9c0.6-0.3,1.8-0.3,1.7-0.7c-0.1-0.4,0.7-0.6,0.7-0.6l0.2,0.9l0.6,0.4l0.1,0.8
				c0,0,0.2-0.1-0.6,0.1c-0.8,0.2-0.3,0.6-0.3,0.6l-1.7,0.1l-0.2-0.7L168.4,48.9L168.4,48.9z"/>
			<path id="path149_9_" fill="#4B92DB" d="M165.6,45c0.4,0-0.1,1.7,1,1.5c1.2-0.1,0.1,0.5,0.9,0.6c0.9,0.1,0.6-0.7,0.9-1.2
				c0.3-0.5,0.1-0.8-0.4-1c-0.5-0.1-0.5-0.1-0.6-0.7s-0.7-0.7-0.7-0.7l-0.2-0.9l-0.9,0.6l-0.9,1.2C164.6,45.4,165.1,45,165.6,45
				L165.6,45z"/>
			<polygon id="rect153_9_" fill="#4B92DB" points="167.5,51.1 167.7,50.7 168.1,50.9 167.9,51.3 			"/>
			<rect id="rect155_9_" x="166.7" y="50.5" fill="#4B92DB" width="0.4" height="0.5"/>
			<polygon id="rect157_9_" fill="#4B92DB" points="167.1,40.7 167.2,41.4 166.7,41.4 166.6,40.8 			"/>
			<rect id="rect159_9_" x="165.9" y="47.5" fill="#4B92DB" width="0.4" height="0.4"/>
			<polygon id="rect161_9_" fill="#4B92DB" points="164.7,47.5 164.7,47.1 165.4,47 165.4,47.4 			"/>
			<polygon id="rect163_9_" fill="#4B92DB" points="158.8,54.5 158.4,54.4 158.6,53.8 159,54 			"/>
			<polygon id="rect165_9_" fill="#4B92DB" points="156.5,53.2 156.5,52.8 157.2,52.7 157.2,53.1 			"/>
			<polygon id="polygon169_9_" fill="#4B92DB" points="142.5,53.1 142.5,53.6 144.1,53.5 144.1,53.1 			"/>
			<polygon id="rect171_9_" fill="#4B92DB" points="141.4,53.7 141.3,53 141.7,52.9 141.8,53.6 			"/>
			<polygon id="rect173_9_" fill="#4B92DB" points="141.1,54.1 141,53.7 141.2,53.7 141.3,54.1 			"/>
			<path id="path175_9_" fill="#4B92DB" d="M144.7,52.9l-0.1,0.5l0.8,0.1c0,0,0.4,0.3,0.4,0.5c0,0.2,0.5,0.4,0.8,0.4
				c0.3,0,1.1-0.6,1.1-0.6s0.4-1,0.1-1c-0.3,0.1-0.9,0.5-0.9,0.1c-0.1-0.4-0.9-0.2-0.9-0.2L144.7,52.9L144.7,52.9z"/>
			<path id="path177_9_" fill="#4B92DB" d="M148.3,52.1c0,0.2-0.1,0.5,0.3,0.6c0.4,0.1,1.2-0.3,1.3,0.1c0.1,0.4,0.1,0.7,0.6,1
				c0.6,0.2,0.9,0.3,1.4,0.3s1.4-0.1,1.4-0.1s1,0.2,1.2,0.4c0.8,0.8,1.3,1,1.5,0.7c0.2-0.4-0.1-1.2-0.1-1.5
				c-0.1-0.3-1.1-1.7-1.4-1.4c-0.4,0.3-0.4,0-1.1,0.2c-0.6,0.2-2,0.1-2.1-0.2s-1.1-0.4-1.1-0.7s-0.7-0.7-0.6-0.2
				c0.1,0.4-0.5,0.7-0.7,0.5C148.7,51.6,148.3,52.1,148.3,52.1L148.3,52.1z"/>
			<path id="path179_9_" fill="#4B92DB" d="M164.8,42.8l0.5-1.6c-0.7-0.1-0.6-1-0.6-1c-0.1-0.7-1.1-1.4-1.4-1.2
				c-0.4,0.2-0.2-1.5-0.2-1.5s0.7-0.4,0.9-0.2c0.3,0.2-2.5-3.7-3-3.3c-0.6,0.4-1.9-0.4-1.8-1c0.1-0.7-2.6-2.9-2.6-2.9
				s-0.9-0.6-1-0.1c-0.1,0.4-0.4,0.7,0,1c0.4,0.2,0.4-0.4,0.9,0.1s1.4,1.2,1.1,1.6c-0.4,0.4-0.8,0.6-0.8,0.6l0.5,0.6h0.8l0.1,1.2
				c0,0,0.9,0.4,1.1,1c0.2,0.5,0.2,0.8,0,1.1c-0.2,0.3-0.6,0.8-0.6,1.3c0.1,0.5,0.6,0.7,0.6,0.7l0.6,0.1l0.4,0.2v1
				c0.6-0.1,1.5,0.7,1.4,1.2c-0.1,0.5,0.1,0.2,0.9,0.7c0.7,0.5,0.5,0.6,1,1C164.2,43.7,164.6,43.4,164.8,42.8L164.8,42.8z"/>
			<path id="path181_9_" fill="#4B92DB" d="M153,32.9c-0.1-0.3-0.2-1.3,0.2-1.2c0.4,0.1,0.1,0,0.6,0.2s0.6-0.4,0.6-0.4h0.8l1,0.8
				l-0.1,0.7l-0.7,0.1c-0.4-0.6-1.1-0.4-0.9,0.1c0.1,0.5-0.4,1.5-0.6,1.5c-0.3,0.1-1.2,0.1-1.2-0.4C152.7,33.9,153,32.9,153,32.9
				L153,32.9z"/>
			<path id="path183_9_" fill="#4B92DB" d="M152.4,30.9v-0.6c0,0-0.1-0.6-0.4-0.6c-0.4,0-1-0.4-0.9-0.7c0.1-0.3-1.2-0.6-1.2-0.6
				s-1.2-1.2-0.8-1c0.4,0.1,0.2-0.5,0.2-0.5s-0.9,0.1-1.1,0.1c-0.2-0.1-0.1-0.7-0.1-0.7s-0.9-0.2-0.9,0s0.3,0.2,0.4,0.7
				s0.1,1.2,0.7,1.3c0.6,0.1,0.8,0.3,0.9,0.6c0.1,0.3,0.9,0.4,0.9,0.4l0.6,0.3L152.4,30.9L152.4,30.9z"/>
			<polygon id="polygon185_9_" fill="#4B92DB" points="144.4,22.9 143.9,22.7 143.9,23.4 144.7,23.4 			"/>
			<path id="path187_9_" fill="#4B92DB" d="M144.4,20.4c-0.8-0.6,1,0.4,1,0.4c0.6,0,0.9,0.4,0.9,0.7s0.8,0.1,0.8,0.1l0.1-0.5
				l-0.6-0.7l-0.5-0.4c0,0-0.8-0.1-0.8-0.3C145.4,19.5,144.7,20.6,144.4,20.4L144.4,20.4z"/>
			<path id="path189_9_" fill="#4B92DB" d="M157.6,20.8c-0.2,0.6-0.3,1.5-0.6,1.5c-0.4,0-0.2,1-0.2,1s0.9,0,1.2,0.1
				c0.3,0.1,0.3,0.8,0.3,0.8c1.1-0.1,1.5,1.4,1.4,1.8c-0.1,0.4,0.4,0.4,0.4,0.4s0,1.2-0.1,1.5c-0.1,0.3,0.9,0.5,1.2,1
				c0.3,0.4-0.1,1.9-0.4,2c-0.2,0.1,0.6,0.3,0.5,0.7s0.2,0,0.3,0.6c0.1,0.6,0.2,1.8,0.2,1.8l1,0.1c0.1-1,2-1,2.3-0.9
				c1.2,0.4,2.2,2.3,2.2,2.8s-0.8,0.5-0.8,0.5l0.1,2.1c1.2,0.4,2.2,2.1,2.1,2.4c-0.1,0.3,0.9,0.2,0.9,0.2c0.1-1.3,1.4-0.9,1.4-0.4
				c0.1,0.4,0.3,1.4,0.3,1.4l0.4,0.7l0.5,0.5l0.8-0.1l0.2,0.4l0.9,0.1c0,0,0.8,0.9,0.9,1.1c0.1,0.2,1.2,0.1,1.4,0.2
				c0.3,0.1,0.7,0.3,0.8,0.7c0.1,0.4,0.5,1,0.5,1s0.9,0.2,0.9,0.5c0.1,0.3,0.4,1,0.4,1l0.7,0.6l0.1,0.7l0.8,0.1l0.2,0.9l1.3-0.1
				l0.7-0.5c0.9-0.5,1.6-1.2,1.7-1.5c0.1-0.3,0.2-1.4,0.9-1.2c0.7,0.2,0.2-1.6,0.2-1.6s-1-0.7-0.9-1.1c0.1-0.4-1-1.1-0.9-1.4
				c0.1-0.3-0.9-0.9-0.9-1.2s-0.5-1.1-0.5-1.1l-1.1-1l-0.1-0.7l-0.9-0.1l-1.7-2.1l0.1-0.6l-0.5-0.1v-0.8l-0.5-0.3L177,35l-1.6-1.8
				l-0.1-0.8h-0.8l0.1-1.5c0.5-0.7,0.2-1.9,0.2-1.9s-1,0.5-1.5,0.3c-0.5-0.2,0.2-0.7,0.2-0.7V28l-0.4-0.4c0,0-1.2,0.1-1.3-0.1
				c-0.1-0.2-0.3-1.2-0.3-1.2l-0.1-1.2l-0.5-0.2l-0.1-0.4l-0.8,0.1v-0.9l-0.4-0.1l-0.4-0.2l-0.1-0.9l-1.6-0.1l-0.5-0.7l-0.6-0.9
				l-1.8-0.1l-0.4-0.4l-0.7-0.1l-0.5-0.2l-0.2,0.4l-1.4,0.1l-0.1,0.4C160.6,20.9,157.7,20.6,157.6,20.8L157.6,20.8z"/>
			<path id="path191_9_" fill="#4B92DB" d="M165.2,18.9c-0.1-0.6,1.4-1.1,1.8-0.7s1.4,0.5,1.5,2.7c0.1,0.8-1.3-0.8-1.3-0.8l-1.1-0.4
				C165.6,19.7,165.3,19.3,165.2,18.9L165.2,18.9z"/>
			<polygon id="rect193_9_" fill="#4B92DB" points="144.1,19.8 143.7,19.6 144,19 144.4,19.2 			"/>
			<path id="path195_9_" fill="#4B92DB" d="M140.4,12.6l-0.9-1v-0.8l-0.3-0.3l-0.3-1L138,9.3L137,9.6l-1,0.7l-1.1,0.1l-0.6,0.7
				l2.3,0.2l0.4,0.7l1.7,0.1l1.1,1.1C140.8,13.6,141,13.1,140.4,12.6L140.4,12.6z"/>
			<path id="path197_9_" fill="#4B92DB" d="M140.2,9.1c-0.2-0.6-1.1,0.8-0.1,1.1c0.9,0.3,1.9,0,1.9,0l0.2-0.4l3.6,0.1
				c0.3-0.3,0.4-0.7,0.4-0.7s0.9-0.3,1.2-0.1c0.4,0.1,0.1-1-0.3-0.9c-0.4,0.1-1.1,0.1-1.1,0.1h-1.3c-0.1-0.5-1.2-0.3-1.3,0
				c-0.1,0.3-0.5,0.4-0.5,0.4l-1.7,0.1C141.2,9.1,140.3,9.4,140.2,9.1L140.2,9.1z"/>
			<path id="path199_9_" fill="#4B92DB" d="M133.1,21.4c1.1,0.4,1.5,0.1,1.6-0.2c0.1-0.3,0.1-0.4,0.6-0.4c0.4-0.1-0.1-1-0.5-0.9
				c-0.4,0.1-0.9-0.1-0.9-0.5c-0.1-0.4-0.8-1.3-0.9-0.6c-0.1,0.7-0.5,0.7-0.4,1.2C132.6,20.5,132.8,21.3,133.1,21.4L133.1,21.4z"/>
			<path id="path201_9_" fill="#4B92DB" d="M124.9,22.2c-0.1-0.3,1.4-0.3,1.7-0.1c0.2,0.2,0.1,0.6,0.7,0.6c0.6,0,0.4,0.4,0.3,0.7
				c-0.1,0.2-0.8,0.1-0.9-0.1c-0.1-0.2-1.2-0.3-1.2-0.3S124.9,22.6,124.9,22.2L124.9,22.2z"/>
			<polygon id="polygon205_9_" fill="#4B92DB" points="148.7,7 148.4,6.6 148.1,7 148.6,7.5 148.7,7.6 148.9,7.5 149.6,6.9 
				149.3,6.6 			"/>
			<polygon id="polygon207_9_" fill="#4B92DB" points="144.9,4.9 144.7,5.3 145.3,5.7 145.4,5.7 145.5,5.7 146.3,5.2 146.1,4.8 
				145.4,5.2 			"/>
			<polygon id="polygon209_9_" fill="#4B92DB" points="142.9,20.2 142.2,20.1 142.2,20.6 142.8,20.6 143.2,21.4 143.6,21.1 
				143.1,20.3 143,20.2 			"/>
			<path id="path211_9_" fill="#4B92DB" d="M119.3,40.6l0.1,0.8h1.1c0.4,0-0.4-0.5-0.4-0.5S119.2,41,119.3,40.6L119.3,40.6z"/>
			<polygon id="rect213_9_" fill="#4B92DB" points="120.6,40.6 120.9,40.3 121.4,40.6 121.1,41 			"/>
			<polygon id="rect215_9_" fill="#4B92DB" points="107.5,27 107.8,26.7 108.3,27.1 108,27.4 			"/>
			<polygon id="polygon219_9_" fill="#4B92DB" points="127.7,120.5 127.5,120.9 128,121.1 127.8,121.3 128.1,121.6 128.5,121.2 
				128.7,121 128.4,120.9 			"/>
			<polygon id="polygon221_9_" fill="#4B92DB" points="122.6,115.3 122.2,115.7 121.9,115.8 122.2,116 122.7,116.4 122.9,116 
				122.7,115.8 122.9,115.6 			"/>
			<path id="path223_9_" fill="#4B92DB" d="M176.3,101.8c-0.1-0.4-0.5-0.5-0.6-0.5l-0.1,0.4l0,0c0,0,0.1,0,0.1,0.1l0.1,0.4
				c0,0-0.1,0.1-0.1,0.1l0.3,0.3C176.3,102.3,176.4,102,176.3,101.8L176.3,101.8z"/>
			<polygon id="polygon225_9_" fill="#4B92DB" points="176.3,100.4 176.3,99.7 177,99.8 177,100.4 			"/>
			<path id="path227_9_" fill="#4B92DB" d="M193.7,94.7c0.3-0.2,0.7-0.6,0.6,0.3c-0.1,0.8-0.4,0.6-0.6,0.8S193.2,95,193.7,94.7z"/>
			<path id="path231_9_" fill="#4B92DB" d="M197.3,91.6C197.3,91.6,197.3,91.6,197.3,91.6c0-0.2,0-0.4-0.1-0.6l-0.4,0.2
				c0,0.1,0.1,0.2,0.1,0.3c0,0.1,0,0.3,0.1,0.4c0.1,0.1,0.2,0.1,0.3,0.1V91.6C197.2,91.6,197.3,91.6,197.3,91.6L197.3,91.6z"/>
			<path id="path233_9_" fill="#4B92DB" d="M196.3,92c0.1,0.4,0.3,0.9,0.3,0.9l0.4-0.2c0,0-0.2-0.4-0.3-0.9L196.3,92L196.3,92z"/>
			<path id="path235_9_" fill="#4B92DB" d="M194.8,93.7l-0.4,0c0,0.3,0,0.8,0.4,0.8l0.1-0.4l0,0C194.8,94,194.8,93.8,194.8,93.7
				L194.8,93.7z"/>
			<path id="path237_9_" fill="#4B92DB" d="M192.9,85c0-0.1-0.1-0.3-0.2-0.3c-0.3-0.1-0.9,0.1-1.1,0.3l0.2,0.4
				c0.3-0.2,0.6-0.3,0.7-0.2c0,0,0,0,0,0L192.9,85L192.9,85z"/>
			<path id="path241_9_" fill="#4B92DB" d="M173,61.7c-0.3,0.3-0.9,0.4-0.9,0.4l-0.2,0.8l-0.4,0.3c0,0,0.1,0.2,0,0.7
				c-0.1,0.5-0.7,0.8-0.7,0.8l-0.3,0.4c0,0-1.7,0.1-1.9,0c-0.6-0.3-0.2-1.2,0.2-1.1s-0.1-1.2-0.1-1.2l0.6-0.1c0,0,0.1-1.3,0.3-1.3
				s-0.1-0.4-0.4-0.7c-0.3-0.2-0.6-1-0.9-0.9c-0.3,0.1-1.4,0-1.4,0l-0.2,0.4l-0.8,0.1c0,0,0.1,0.6-0.1,0.7c-0.4,0.5-2.1,1.6-1.4-0.2
				l0.2-0.4v-0.7l-1.3-0.1c0,0-0.6-0.2-0.6-0.5c0-0.3-0.1-0.7-0.1-0.7l-1.5-1.7l-1.8-0.2l-0.1-0.4l-1.1-0.1c-1.3-0.7-2.5-0.1-2.2,1
				c0.2,1.1,0.6,1.5-0.1,1.5c-0.7,0-0.9-0.6-0.9-0.6s-0.6-0.2-0.6,0.1s-0.2,0.9,0,1.2c0.2,0.3-0.3,0.7-0.5,0.5
				c-0.2-0.2-0.8-0.9-0.6-1.1c0.1-0.2-1-1.6,0.1-1.8c1.2-0.2-0.1-0.9,0.4-1l0.6-0.3h0.6l0.4-0.3l-0.9-0.1l-0.6-0.1l-1.1-0.1
				c-1.1,0.7-1.3,1.6-1.3,1.6c-0.6,1.1-1.9-0.4-1.4-1s-1.6-0.1-2,0.2c-0.4,0.3-1.4,0.1-1.4,0.1c-0.2,0.7-1.2-0.1-0.9-0.5
				c0.3-0.4,0.3-0.7,0.3-0.7l-0.4-0.1l-0.4,0.8c-1,0-1.3,0.6-1.1,1c0.2,0.4-0.3-0.1-0.4,0.4s0.1,0.5,0.5,0.7
				c0.4,0.2-0.2,0.2,0.1,0.6c0.3,0.4,1.2,0,0.7,0.5c-0.5,0.5-1.5,0.3-1.5,0.3c-0.1,0.7-1.4,0.5-1.6,0.3c-0.1-0.2-1.2-1.5-1.2-1.5
				l-1.4-0.1c-0.1-1,0.7-0.5,0.9-1.3c0.3-0.8,0.4-2.1,0.4-2.1s-1.2-0.1-1.2,0.3c-0.1,0.4-0.8,0.6-0.8,0.6s-0.6,0.2-0.4,0.5
				c0.2,0.3-0.4,0.4-0.4,0.4s0.1,0.5-0.1,0.7c-0.6,0.6-2,0.1-2.2-0.1l-0.9-0.4l-0.9-0.6l-1,0.4l-0.3,0.3h-1.1l-0.1,0.9l1.9,0.2
				l0.1,1.8l-0.8-0.3h-0.5l-0.2-0.4l-0.4-0.1v1.6l0.4,0.4l0.4,0.4l0.7,0.1l0.1,0.9l1.8,0.1l0.2,0.4l1.1,0.1l2.1,2.1L138,65l-0.4,0.2
				c0.1,0.5-0.9,0.2-0.9,0.2v0.4l0.5,0.1l0.5,0.3l0.7-1.2c0.8-0.5,1.2,0.2,1.2,0.7c0.1,0.4-0.4,0.4-0.4,0.4v1l0.4,0.1
				c0.7,0.9-0.3,1.4-0.3,1.4l-0.3,0.8c-0.2,0.7-1,0.5-1,0.5l-0.3,0.4l-0.9,0.2l1.7,0.2c0.2-0.6,0.6-0.7,0.8-0.4
				c0.2,0.3,0.2,0.8,0.2,0.8l0.4,0.1L140,72l0.4,0.1v2.3l0.5,0.6c0.9-0.4,0.9,0.2,0.4,0.5c-0.4,0.3-0.1,1.6-0.1,1.6l-0.4,0.4v0.6
				l-0.4,0.3v0.8c-0.7-0.4-1.6-0.2-1.8,0c-0.6-0.4-2-0.3-2,0.1c0.4,0.6-0.5,0.7-0.5,0.7l-0.5,0.6c0.4,0.7-0.4,0.8-0.4,0.8v1.4
				l-0.9,0.8l0.1,1.9c0,0.5,1.1,0.6,1.3,0.3c0.2-0.3,1.1,0.6,1.1,0.6h0.6l0.1-1.3l-0.4-0.2v-2.1l0.7-0.8c0.9-0.3,0.6,1.9,0.6,2.1
				c0.1,0.8,0.4,0.7,0.8,0.6c0.7-0.3,0.1,0.8-0.4,0.7c-0.6-0.1-0.2,0.7-0.2,0.7l0.4,0.1l-0.7,0.5l-0.6,0.7l-0.7-0.2l-0.9-0.1
				l-0.3-0.5l-0.5-0.1l-0.1,1L135,88l-0.9,0.9c1.2,0-0.1,0.8-0.4,0.8c0.6,0.2-0.1,0.9-1.7,0.4v0.5l-0.6,0.1l0.5,0.6l0.6,0.1
				l-0.2,1.2c0,1-2.4,0.3-2.6,0.1l-0.1,1.3l-0.4,0.1l0.1,0.9l-0.1,1.2l0.8-0.1v0.5l2,0.1l2.8-3l1.7-0.4c0.1-0.7,0.9,0.1,0.9,0.1
				c0.7-0.1,0.9,0.4,0.9,0.4l0.9,0.1c0.8,0.2,0.3,0.3,0.4,0.6c0.1,0.4,0.4,0.3,0.4,0.3l0.1-1l0.4,0.1l-0.4-0.5l-0.8-0.4l-0.9-0.4
				c-0.6-0.8,0.1-0.7,0.7-0.6h0.9c0,0,1.1,1.5,1.1,1.8s0.5,0.4,0.5,0.4l0.6-0.1l0.2,0.5h0.6l0.2,0.4h1.3l0.1-0.7l-1.2-0.2l-0.1-0.7
				l-0.9-0.2c-0.3-1.2,0.2-1.6,0.6-1l0.4,0.1l-0.1-1.1l0.5-0.1l-0.1-1.5l-0.4-0.1v-0.5L145,89c-0.1-1,0.1-1.4,0.1-1.4h0.5l0.1,0.4
				l2.2,0.2l1.6-1.8c-0.1-0.1,0.2-0.2,0-0.4c-0.2-0.2-0.5,0-0.9-0.2s0-1.5-0.1-1.8c-0.1-0.3,1.2-0.7,1-0.1s0,1,0,1
				c0.9-0.9,1.7,0.1,1.7,0.3c-0.1,0.2,0.5,0.4,0.9,0.2c0.4-0.2,0.8,0.7,0.7,1.1s-1.4,0.4-1.5-0.1c-0.1-0.4-0.3-0.3-0.4-0.1
				c-0.1,0.2-0.8,0.4-1.2,0.1c-0.1,0-0.1-0.1-0.1-0.1l-1.6,1.8h0.1c0.9,0.5,0.4,1.2,0.1,1.3c-0.3,0.1-0.8,0.1-0.8,0.1l-0.1,0.3
				l-1.9,0.1l-0.1,0.7c-0.9-0.1-1.3,0.9-1.1,1.4c0.2,0.5,0,1,0,1l0.8,0.4l1-0.3c0.1-0.7,0.8-0.9,1.4-1.3c0.6-0.4,1.5,0.8,1.2,1.4
				c-0.3,0.6-0.3,0.8-0.3,0.8l0.1,0.7l-0.7,0.3l-0.6,0.3l-0.1,0.4H145l-0.4,0.4l-0.9,0.1l-0.3,0.4l-0.6,0.1c0,0-1.1,0.5-0.6,1.1
				c0.4,0.6-1.8,0.5-2.3-0.3c-0.1,0.7-0.9,0.1-0.9,0.1l-0.8-0.2l-0.1-1.1c-0.1-0.7-1.5-0.7-1.4-0.2c0.1,0.5-2.6,0.2-2.6,0.2
				l-0.9,0.4l-0.8,0.5l-0.1,0.4l-1.3,0.1l-0.6,0.3l-0.2-0.4h-0.6l-0.6,0.8c-1.5,0.1-3,1-2.8,1.3c0.1,0.4-0.6,0.7-0.6,0.7l-0.7,0.2
				l-0.4,0.7l-0.9,0.3l-0.1,1.5l-0.4,0.3v0.7l-0.5,0.1v0.4l-0.7,0.1l0.4,1.1l0.6,0.3c1,0.1,0.6,1.4,0.6,1.4l0.6,0.1l0.3,0.8l0.6,1.2
				c0.2,0.9,0.9,0.7,1.2,0.6c0.3-0.1,0.6,0.9,0.6,0.9l2.9,0.1c0,0-0.1,0.3,0.4,0.4s3.8,0.3,4,0.1c-0.1-0.7,1.8-0.8,2.6-0.2
				c0.8,0.6,1.9,0.2,1.9,0.2l1.1,1.3l0.7,1.6l1.2,0.4l0.9,0.2l0.3,1.2l0.6,0.1l0.2,0.8c0.8,0.6-0.2,1.8-0.2,1.8v1.6l0.6,0.3
				l-0.1,0.6l0.9,1l1.1,0.1l2.7,2.9l2.2,0.7l0.4,1.2l0.6-0.1l0.4-0.4l1.7-0.1l0.9-0.8l0.9-0.1l8-6.8l-0.7-0.4v-1.6
				c1.3-1,1.4-2.6,0.1-2.8c-0.9-0.1-0.5-1.1,0.4-1.2l0.5-0.2v-0.7l1.7-1.5v-1.2l-3.6-3c-1.6-0.6,0-4.1,1.1-4
				c1.1,0.1-0.1-5.4-0.1-5.4l-0.6-0.3l0.1-1.8h-0.8l-1.3,1.7l-0.4,1.2c-0.1,1.5-4.6,1.2-4.8,1c-0.2-0.2-1.7-0.9-1.7-0.9
				s-1.2-1-1.4-0.7c-0.2,0.3-1.2-0.4-1.2-0.1s-0.9-0.5-0.9-0.5l-1.4-0.5l1.1-0.2l-0.2-0.9l1.9,1c0.2,0.3,1.2,0.2,1.2,0.2l0.3,0.4
				c0,0,0.6-0.1,0.9,0.4c0.4,0.4,2.2,0.1,2.2,0.1l0.5,0.4l0.8,0.3l2.2,0.1l0.1-1.4l0.4-0.4l-0.1-0.9l0.5-0.4v-0.7l0.4-0.1l0.1-1.6
				L161,92v-3.5l-1.1-1c-0.1,0.4-1.2,0.4-1.2,0.4s-0.3,0.5-0.5,0.5s0.3,0.7,0.1,1.1c-0.1,0.4-0.7,0.4-0.7,0.4l-1.1,0.3l-0.3,0.4
				h-1.2l-0.1-1l1.3-0.4l0.7-0.4l0.4-0.7c0.1-0.7,0.9-0.7,0.9-0.7s1.7-1.4,1.7-2.1s0.7-2.5,1.7-2.5h1.9c0.7-0.3,0.5-1.2,0.5-1.2
				l0.9-0.1l0.1,0.5c0,0,1.3,0.1,1.4-0.1c0.1-0.2,0.4-0.7,0.8-0.5c0.4,0.2,1.5-0.5,1.5-0.5c0.1-0.5,1.9-0.3,1.9-0.3l0.2-0.7
				c0,0-1.2-1.7-1.4-1.7c-0.2,0-1.4-1-1.5-0.7c-1.2-0.3-1.1-1.9-1.1-1.9l-0.4-1c0-0.6-1.1-1.8-1.3-1.7c-1.1-0.8-0.3-1.8,0-1.8
				c0.3-0.1,1-1.1,1-1.1l0.4-1l1.2-0.4l0.1-1l-0.6-0.1c0,0,0.7-1.3,1.1-1.3c0.4,0,2.7,0,3-0.1c0.2-0.1,0.6-1.3,0.6-1.5
				c0-0.2,0.6-0.3,0.8-0.4c0.2-0.1,0.7-0.7,0.9-1C173.8,63.2,173.3,61.4,173,61.7L173,61.7z"/>
			<path id="path245_9_" fill="#4B92DB" d="M133.1,88c0.1-0.1,0.2,0.3,0.4,0.3s0.3,0.4,0.1,0.4s-0.2,0.3-0.2,0.4
				c0,0.1,0,0.4-0.2,0.5c-0.2,0.2-0.3,0.1-0.5-0.1c-0.2-0.1-0.3-0.1-0.6-0.1s-0.1,0.4-0.1,0.4s-1.1-0.1-0.9-0.2
				c0.2-0.2,0.4-0.2,0.3-0.3c-0.2-0.1,0-0.2,0-0.4c0-0.2,0.5-0.1,0.4-0.3c-0.2-0.2,0-0.8,0.3-0.4l0.2-0.4c-0.2-0.2-0.1-0.2-0.4-0.3
				c-0.3-0.1-0.1-0.8-0.1-0.8l0.1-0.4c0.1-0.5,1.2-0.6,1.2-0.1c0.1,0.5,0,0.8,0,0.8l0.3,0.1c0,0-0.1,0.3-0.3,0.3s0,0.2-0.2,0.3
				L133.1,88L133.1,88z"/>
			<path id="path247_9_" fill="#4B92DB" d="M129.6,88.5c0.2-0.3,0.5-1.8,1-1.3c0.4,0.4,0.7,0,0.7,0s0.2,0.2,0.1,0.7
				c-0.1,0.4-0.2,0.9-0.5,0.9c-0.3,0.1-0.5,0.2-0.8,0.3C129.8,89.1,129.6,88.5,129.6,88.5L129.6,88.5z"/>
		</g>
		<g>
			<g>
				<path fill="#4B92DB" d="M100,153.9L100,153.9c-4.1-1.6-7.4-3.3-8.6-3.8c-1.7-1-1.8-1.4-1.7-2.6c0.1-0.8,0.1-1.2,0.3-1.8
					l-13.3-6.5c-0.4,1.2-0.8,3.1-0.9,5c-0.1,2.1,0,4.2,0.5,5.5c3.9,3.7,12.1,9.6,20.6,12.7l0,0c8.6,3.1,18.7,3.8,24,3.5
					c1.2-0.7,2.7-2.3,3.9-4c1.1-1.6,2.1-3.3,2.5-4.5l-14.3-3.6c-0.2,0.5-0.5,0.9-0.9,1.6c-0.7,1-1,1.3-3,0.9
					C107.8,156.2,104.2,155.3,100,153.9L100,153.9C100,153.9,100,153.9,100,153.9z"/>
			</g>
			<g>
				<path fill="#4B92DB" d="M56.5,117.5L56.5,117.5c-1.6-3.2-2.7-5.9-3-6.9c-0.5-1.5-0.3-1.8,0.4-2.5c0.5-0.5,0.7-0.7,1.1-0.9
					l-4.3-11c-0.9,0.5-2.2,1.4-3.3,2.5c-1.2,1.2-2.3,2.5-2.7,3.5c0.3,4.2,1.9,12.1,5.3,18.7l0,0c3.4,6.5,8.9,12.3,12.2,15
					c1.1,0.2,2.8,0.1,4.4-0.2c1.5-0.3,3-0.8,3.9-1.3l-6.5-9.9c-0.4,0.2-0.8,0.3-1.4,0.4c-0.9,0.2-1.3,0.2-2.3-1.1
					C59.8,123.1,58.1,120.6,56.5,117.5L56.5,117.5L56.5,117.5z"/>
			</g>
			<g>
				<path fill="#4B92DB" d="M46.2,71.2L46.2,71.2c0.1-2.8,0.5-5.2,0.6-6c0.2-1.2,0.5-1.4,1.2-1.6c0.5-0.1,0.8-0.2,1.2-0.2l1.2-9.4
					c-0.8,0-2.1,0.1-3.3,0.5c-1.3,0.3-2.6,0.9-3.3,1.4c-1.4,3.1-3.4,9.3-3.5,15.1l0,0c-0.2,5.8,1.5,12.1,2.8,15.3
					c0.7,0.6,1.9,1.2,3.2,1.6c1.2,0.4,2.4,0.6,3.2,0.6l-0.7-9.4c-0.4,0-0.6-0.1-1.1-0.3c-0.7-0.2-1-0.4-1.2-1.6
					C46.4,76.4,46.2,74,46.2,71.2L46.2,71.2L46.2,71.2z"/>
			</g>
			<g>
				<path fill="#4B92DB" d="M56.9,33.2L56.9,33.2c1.1-2,2.1-3.6,2.5-4.1c0.6-0.8,0.8-0.8,1.4-0.7c0.4,0.1,0.6,0.1,0.9,0.3l4.1-6.4
					c-0.6-0.3-1.5-0.6-2.5-0.8c-1.1-0.2-2.2-0.3-2.8-0.1c-2.1,1.7-5.6,5.5-7.7,9.7l0,0c-2.1,4.2-3.1,9.3-3.3,12
					c0.3,0.7,1,1.5,1.8,2.2c0.7,0.7,1.5,1.3,2.1,1.6l2.7-7.1c-0.3-0.2-0.4-0.3-0.7-0.6c-0.5-0.4-0.6-0.6-0.3-1.6
					C55.2,37,55.9,35.3,56.9,33.2L56.9,33.2C56.9,33.2,56.9,33.2,56.9,33.2z"/>
			</g>
			<g>
				<path fill="#4B92DB" d="M166.2,153.9L166.2,153.9c-4.2,1.5-7.8,2.3-9,2.6c-1.9,0.4-2.3,0.1-3-0.9c-0.5-0.7-0.7-1-0.9-1.6
					l-14.3,3.6c0.5,1.2,1.4,2.9,2.5,4.5c1.2,1.7,2.7,3.3,3.9,4c5.3,0.3,15.4-0.4,24-3.5l0,0c8.6-3.1,16.8-9.1,20.6-12.7
					c0.5-1.3,0.6-3.5,0.5-5.5c-0.1-1.9-0.5-3.9-0.9-5l-13.3,6.5c0.2,0.6,0.2,1,0.3,1.8c0.1,1.2,0,1.6-1.7,2.6
					C173.7,150.6,170.4,152.3,166.2,153.9L166.2,153.9C166.3,153.9,166.2,153.9,166.2,153.9z"/>
			</g>
			<g>
				<path fill="#4B92DB" d="M209.8,117.5L209.8,117.5c-1.7,3.1-3.4,5.6-4,6.4c-0.9,1.3-1.3,1.3-2.3,1.1c-0.7-0.1-1-0.2-1.4-0.4
					l-6.5,9.9c0.9,0.5,2.4,1,3.9,1.3c1.6,0.3,3.4,0.4,4.4,0.2c3.3-2.7,8.9-8.5,12.2-15l0,0c3.4-6.5,5-14.4,5.3-18.7
					c-0.4-1-1.5-2.4-2.7-3.5c-1.1-1.1-2.4-2-3.3-2.5l-4.3,11.1c0.4,0.3,0.7,0.5,1.1,0.9c0.7,0.7,0.9,1,0.4,2.5
					C212.5,111.6,211.4,114.4,209.8,117.5L209.8,117.5L209.8,117.5z"/>
			</g>
			<g>
				<path fill="#4B92DB" d="M220.1,71.2L220.1,71.2c0,2.8-0.2,5.2-0.3,6c-0.2,1.3-0.4,1.4-1.2,1.6c-0.5,0.2-0.8,0.2-1.1,0.3
					l-0.7,9.4c0.8,0,2.1-0.3,3.2-0.6c1.3-0.4,2.5-1,3.2-1.6c1.3-3.2,2.9-9.4,2.8-15.3l0,0c-0.2-5.8-2.1-12-3.5-15.1
					c-0.7-0.5-2-1.1-3.3-1.4c-1.2-0.3-2.5-0.5-3.3-0.5l1.2,9.4c0.4,0,0.6,0.1,1.2,0.2c0.7,0.2,1,0.3,1.2,1.6
					C219.7,66,220,68.4,220.1,71.2L220.1,71.2L220.1,71.2z"/>
			</g>
			<g>
				<path fill="#4B92DB" d="M209.4,33.2L209.4,33.2c1,2,1.7,3.8,1.9,4.4c0.3,1,0.2,1.2-0.3,1.6c-0.3,0.3-0.5,0.4-0.7,0.6l2.7,7.1
					c0.6-0.3,1.4-0.9,2.1-1.6c0.8-0.7,1.5-1.6,1.8-2.2c-0.2-2.7-1.1-7.8-3.3-12l0,0c-2.1-4.2-5.6-8-7.7-9.7
					c-0.7-0.2-1.8-0.1-2.8,0.1c-1,0.2-1.9,0.5-2.5,0.8l4.1,6.4c0.3-0.1,0.5-0.2,0.9-0.3c0.6-0.1,0.8-0.1,1.4,0.7
					C207.3,29.6,208.4,31.2,209.4,33.2L209.4,33.2C209.4,33.2,209.4,33.2,209.4,33.2z"/>
			</g>
			<g>
				<path fill="#4B92DB" d="M67.8,23.4l-1-0.6l-4.1,6.3l1.2,0.6c0.4,0.2,0.8-0.1,0.9-0.3l3.2-4.9C68.1,24.2,68,23.7,67.8,23.4z"/>
			</g>
			<g>
				<path fill="#4B92DB" d="M58.5,41.8c0.1-0.3,0.1-0.8-0.3-0.9L57,40.3l-2.7,7l1.1,0.5c0.4,0,0.8-0.2,0.9-0.5L58.5,41.8z"/>
			</g>
			<g>
				<path fill="#4B92DB" d="M53.3,54.3l-1.5-0.2l-1.2,9.3l1.7,0c0.5,0,0.8-0.5,0.9-0.9l0.9-7.2C54,55,53.7,54.5,53.3,54.3z"/>
			</g>
			<g>
				<path fill="#4B92DB" d="M52.6,80.1c0-0.4-0.3-0.9-0.8-0.9l-1.7,0l0.7,9.4l1.5-0.1c0.5-0.2,0.8-0.6,0.8-1L52.6,80.1z"/>
			</g>
			<g>
				<path fill="#4B92DB" d="M53.9,94.8l-1.8,0.7l4.3,10.9l1.8-1c0.6-0.3,0.6-1,0.4-1.5l-3.4-8.5C55.2,95.1,54.6,94.7,53.9,94.8z"/>
			</g>
			<g>
				<path fill="#4B92DB" d="M68.9,123.3c-0.3-0.4-0.9-0.8-1.5-0.5l-1.8,1l6.5,9.8l1.6-1c0.4-0.5,0.5-1.2,0.3-1.6L68.9,123.3z"/>
			</g>
			<g>
				<path fill="#4B92DB" d="M78.5,135l-1,2.2l13.2,6.4l0.9-2.4c0.3-0.8-0.3-1.5-0.8-1.7l-10.3-5C79.9,134.2,79,134.4,78.5,135z"/>
			</g>
			<g>
				<path fill="#4B92DB" d="M116.4,148.7c-0.6-0.1-1.5,0-1.7,0.8l-0.9,2.4l14.2,3.6l0.6-2.3c0-0.8-0.5-1.5-1.2-1.7L116.4,148.7z"/>
			</g>
			<g>
				<path fill="#4B92DB" d="M185.8,134.4l-10.3,5c-0.5,0.3-1.2,0.9-0.8,1.7l0.9,2.4l13.2-6.4l-1-2.2
					C187.3,134.4,186.4,134.2,185.8,134.4z"/>
			</g>
			<g>
				<path fill="#4B92DB" d="M138.8,151.5c-0.6,0.2-1.1,0.9-1.2,1.7l0.6,2.3l14.2-3.6l-0.9-2.4c-0.2-0.8-1.2-0.9-1.7-0.8L138.8,151.5
					z"/>
			</g>
			<g>
				<path fill="#4B92DB" d="M210.9,95.5l-3.4,8.5c-0.2,0.4-0.2,1.2,0.4,1.5l1.8,1l4.3-10.9l-1.8-0.7
					C211.7,94.7,211.1,95.1,210.9,95.5z"/>
			</g>
			<g>
				<path fill="#4B92DB" d="M192.4,131c-0.2,0.5-0.2,1.2,0.3,1.6l1.6,1l6.5-9.8l-1.9-1c-0.6-0.3-1.2,0.1-1.5,0.5L192.4,131z"/>
			</g>
			<g>
				<path fill="#4B92DB" d="M212.2,55.4l0.9,7.2c0.1,0.4,0.3,0.9,0.9,0.9l1.7,0l-1.2-9.3l-1.5,0.2C212.5,54.5,212.2,55,212.2,55.4z"
					/>
			</g>
			<g>
				<path fill="#4B92DB" d="M213.1,87.4c0,0.4,0.3,0.9,0.8,1l1.5,0.1l0.7-9.4l-1.7,0c-0.5,0-0.8,0.5-0.8,0.9L213.1,87.4z"/>
			</g>
			<g>
				<path fill="#4B92DB" d="M198.3,24.5l3.2,4.9c0.2,0.3,0.6,0.5,0.9,0.3l1.2-0.6l-4.1-6.3l-1,0.6C198.2,23.7,198.2,24.2,198.3,24.5
					z"/>
			</g>
			<g>
				<path fill="#4B92DB" d="M209.9,47.3c0.2,0.3,0.6,0.5,0.9,0.5l1.1-0.5l-2.7-7l-1.2,0.6c-0.4,0.2-0.4,0.7-0.3,0.9L209.9,47.3z"/>
			</g>
		</g>
	</g>
</g>
</svg>
