<?xml version="1.0" encoding="utf-8"?>
<!-- Generator: Adobe Illustrator 18.1.1, SVG Export Plug-In . SVG Version: 6.00 Build 0)  -->
<!DOCTYPE svg PUBLIC "-//W3C//DTD SVG 1.1//EN" "http://www.w3.org/Graphics/SVG/1.1/DTD/svg11.dtd">
<svg version="1.1" id="Layer_1" xmlns="http://www.w3.org/2000/svg" xmlns:xlink="http://www.w3.org/1999/xlink" x="0px" y="0px"
	 viewBox="0 0 612 612" enable-background="new 0 0 612 612" xml:space="preserve">
<g>
	<g>
		<g>
			<path id="path51_8_" fill="#4B92DB" d="M499.3,364.3l-4.7-2.6c-9.9,20.4-23,39-38.7,55.1
				l-27.3-27.3c13.4-13.8,24.2-29.4,32.1-46.3l-4.7-2.5c-7.9,16.8-18.4,32-31.2,45.2l-24.7-24.7c10.6-11,19-23.6,25.1-37.2l-4.6-2.5
				c-6,13.4-14.2,25.6-24.2,36.1L369.1,330c7.6-8.1,13.5-17.3,17.5-27.4l-4.6-2.5c-3.8,9.8-9.5,18.7-16.5,26.2l-24.8-24.8
				c7.1-7.9,11.2-17.8,11.7-28.4h35.1c-0.3,9.5-2.2,18.6-5.5,27l4.6,2.5c3.7-9.3,5.8-19.2,6.1-29.5h38.7
				c-0.3,17.1-4.2,33.3-10.7,48.1l4.6,2.5c7-15.8,10.9-32.9,11.3-50.6h35.1c-0.4,24.1-5.9,46.9-15.6,67.4l4.7,2.5
				c10.2-21.7,15.7-45.4,16.1-70h38.7c-0.4,31.7-7.9,61.7-20.9,88.5L499.3,364.3c14-28.8,21.4-60.7,21.4-93.7
				c0-28.1-5.4-55.3-15.6-80.5l-4.8,2.1c9.6,23.8,14.8,49.5,15.2,75.9h-38.7c-0.3-21.1-4.5-41.5-12-60.6l-4.8,2
				c7.3,18.4,11.3,38.2,11.6,58.5h-35.1c-0.3-15.5-3.3-30.6-8.8-44.7l-4.8,2c5.2,13.4,8.1,27.8,8.4,42.6h-38.7
				c-0.3-9.5-2.1-18.7-5.2-27.3l-4.8,2c2.9,8,4.6,16.5,4.8,25.3h-35.1c-0.6-10.6-4.7-20.5-11.7-28.4l24.8-24.8
				c7.7,8.2,13.5,17.6,17.2,27.9l4.8-2c-4-10.9-10.2-20.9-18.3-29.5l27.4-27.4c11.7,12.2,20.6,26.3,26.5,41.6l4.8-2
				c-6.2-15.9-15.5-30.6-27.6-43.2l24.8-24.8c15.4,15.8,27.1,34.2,35.1,54.1l4.8-2c-8.2-20.5-20.3-39.5-36.2-55.8l27.4-27.4
				c19.4,19.8,34.3,42.8,44.4,67.8l4.8-2.1c-10.7-26.4-26.6-50.6-47.3-71.3C437,98,412.7,82,386.2,71.4l-1.9,4.9
				c25,10.1,48.1,25,68,44.4L424.9,148c-16-15.5-34.6-27.6-54.7-35.7l-1.9,4.8c19.5,7.9,37.5,19.6,53,34.6l-24.8,24.8
				c-12.1-11.6-25.9-20.6-41-26.8l-1.9,4.8c14.4,5.9,27.7,14.5,39.2,25.6l-27.4,27.4c-7.7-7.3-16.5-13-26-16.9l-1.9,4.8
				c8.9,3.7,17.1,9,24.3,15.8L337,236c-7.9-7.1-17.8-11.2-28.4-11.7v-35.1c10.1,0.3,19.9,2.5,28.9,6.3l1.9-4.8
				c-9.7-4-20.1-6.3-30.8-6.6v-38.7c15.7,0.3,30.9,3.5,45,9.3l1.9-4.8c-14.7-6-30.5-9.3-46.9-9.6V105c20.8,0.3,40.9,4.5,59.7,12.1
				l1.9-4.8c-19.3-7.8-40.1-12.1-61.6-12.4V61.2c26.4,0.3,51.9,5.5,75.7,15.1l1.9-4.9c-25.2-10.1-52.3-15.5-80.2-15.5
				c-34.5,0-67.1,8.2-96.1,22.8l2.4,4.5c28-14,59-21.7,91.1-22.1v38.7c-26.2,0.4-51,6.8-73.1,17.7l2.4,4.5
				c21.8-10.8,45.8-16.7,70.8-17.1v35.1c-19.5,0.4-38,5.1-54.5,13.1l2.4,4.5c16.1-7.8,33.8-12.1,52.1-12.5V184
				c-12.2,0.4-23.7,3.2-34.1,8.1l2.4,4.5c9.9-4.6,20.6-7.2,31.8-7.5v35.1c-5.4,0.3-10.6,1.5-15.4,3.6l2.4,4.5
				c4.9-2,10.2-3.1,15.6-3.1c11,0,21.4,4.3,29.2,12.1c7.8,7.8,12.1,18.2,12.1,29.2c0,22.8-18.5,41.3-41.3,41.3
				c-11,0-21.4-4.3-29.2-12.1c-7.8-7.8-12.1-18.2-12.1-29.2c0-11,4.3-21.4,12.1-29.2c3.9-3.9,8.5-7,13.6-9l-2.4-4.5
				c-4.8,2-9.1,4.8-12.9,8.2l-24.8-24.8c6.4-6,13.6-10.9,21.4-14.5l-2.4-4.5c-8.4,3.9-16,9.2-22.7,15.4l-27.4-27.4
				c9.6-9.2,20.4-16.7,32.1-22.4l-2.4-4.5c-12.3,6-23.6,13.9-33.4,23.3l-24.8-24.8c12.5-12.2,26.7-22.1,41.9-29.6l-2.4-4.5
				c-15.9,7.9-30.5,18.2-43.2,30.5l-27.4-27.4c15.7-15.4,33.5-27.9,52.6-37.5l-2.4-4.5c-41.8,21-75.8,55.2-96.6,97.2l4.5,2.4
				c9.7-19.7,22.4-37.9,38.2-54l27.4,27.4c-12.8,13.1-23.4,28.3-31.5,45l4.5,2.4c7.6-16,17.9-30.8,30.6-43.8l24.8,24.8
				c-10,10.4-18.3,22.5-24.4,35.7l4.5,2.4c5.8-12.6,13.7-24.3,23.6-34.6l27.4,27.4c-7,7.4-12.7,16.1-16.8,25.6l4.5,2.4
				c3.7-8.9,9.1-17.2,15.9-24.5l24.8,24.8c-6.8,7.6-11.2,17.5-11.8,28.3h-35.1c0.3-10,2.4-19.7,6.2-28.7l-4.5-2.4
				c-4.1,9.6-6.5,20.2-6.8,31.2h-38.7c0.3-17.4,4.3-34.2,11.3-49.7l-4.5-2.4c-7.4,15.9-11.6,33.5-12,52.1h-35.1
				c0.4-24.2,5.9-47.6,16.1-68.8l-4.5-2.4c-10.4,21.6-16.4,45.8-16.8,71.3H96.5c0.4-31.6,7.8-62.1,21.4-89.7l-4.5-2.4
				c-14.1,28.6-22.1,60.7-22.1,94.7c0,20.8,3,41.1,8.6,60.5l5.1-1.3c-5.3-18.2-8.2-37.2-8.5-56.7h38.7c0.2,16.2,2.7,32.1,7.3,47.2
				l5-1.3c-4.5-14.7-6.9-30.1-7.2-45.9h35.1c0.3,12.9,2.4,25.4,6.2,37.3l5-1.3c-3.7-11.5-5.8-23.7-6-36.1h38.7
				c0.3,9.2,2,18.1,5,26.6l5-1.3c-2.9-8-4.6-16.6-4.8-25.3h35.1c0.6,10.6,4.7,20.5,11.7,28.4l-24.8,24.8
				c-7.7-8.2-13.5-17.6-17.2-27.9l-5,1.3c4,11.1,10.2,21.4,18.6,30.3l-27.4,27.4c-13.3-13.9-23.1-30.3-28.8-48.1l-5,1.3
				c6,18.7,16.2,36,30.2,50.5l-24.8,24.8c-18.5-19.1-31.9-41.9-39.5-66.8l-5,1.3c7.8,25.7,21.7,49.4,40.9,69.1l-27.4,27.4
				c-24.2-24.8-41.5-54.6-51-87.1l-5.1,1.3c10,34.2,28.4,65.5,54.3,91.3c17.5,17.5,37.5,31.6,59.2,42l2.6-4.6
				c-20.5-9.8-39.5-23-56.3-39.3l27.4-27.4c14.2,13.8,30.5,24.8,48,32.8l2.6-4.5c-17.1-7.8-33-18.5-46.9-32l24.8-24.8
				c11.6,11.2,25,19.9,39.4,26.1l2.6-4.5c-14-5.9-27-14.4-38.3-25.2l27.4-27.4c8.8,8.3,19,14.5,30.1,18.5l2.6-4.6
				c-10.7-3.7-20.6-9.6-29.1-17.6l24.8-24.8c7.9,7.1,17.8,11.2,28.4,11.7v35.1c-8.3-0.3-16.4-1.8-24.1-4.4l-2.6,4.6
				c8.5,3,17.5,4.8,26.7,5V396c-16-0.3-31.5-3.6-45.9-9.7l-2.6,4.5c15.2,6.4,31.5,10,48.5,10.3v35.1c-23.1-0.4-45.3-5.4-65.8-14.7
				l-2.6,4.5c21.2,9.7,44.4,15,68.3,15.3v38.7c-30.8-0.4-60.4-7.3-87.4-20.2l-2.6,4.6c28.5,13.7,60,20.9,92.6,20.9
				c34.2,0,67.1-8,96.8-23l-2.4-4.7c-27.6,14-58.8,22.1-91.7,22.5v-38.7c26.1-0.4,51.3-6.7,74-18.1l-2.4-4.7
				c-21.6,10.9-45.9,17.2-71.6,17.6v-35.1c19.6-0.4,38.5-5.1,55.6-13.6l-2.4-4.7c-16.1,8-34.1,12.7-53.2,13.1v-38.7
				c12.5-0.4,24.5-3.4,35.5-8.7l-2.4-4.6c-10,4.9-21.2,7.8-33.1,8.2V317c10.6-0.6,20.5-4.7,28.4-11.7l24.8,24.8
				c-5.9,5.6-12.7,10.3-20.1,13.9l2.4,4.6c7.8-3.8,15-8.8,21.4-14.8l27.3,27.3c-9.1,8.8-19.6,16.1-31,21.8l2.4,4.7
				c11.7-5.8,22.6-13.5,32.3-22.8l24.7,24.7c-12.1,11.7-25.9,21.5-41,29.1l2.4,4.7c15.4-7.7,29.6-17.8,42.3-30.1l27.3,27.3
				c-15.2,14.9-32.8,27.4-51.9,37.1l2.4,4.7c20.1-10.2,38.7-23.5,55.1-39.9C475.1,405.3,489,385.6,499.3,364.3L499.3,364.3z"/>
			<polygon id="polygon59_9_" fill="#4B92DB" points="317,221 317.1,222.5 318.4,222.5 318.3,220.9 			"/>
			<rect id="rect61_9_" x="315.1" y="218.9" fill="#4B92DB" width="1.7" height="1.3"/>
			<polygon id="polygon63_9_" fill="#4B92DB" points="313.5,218.6 313.7,217.3 312.2,217.1 312,218.4 			"/>
			<polygon id="rect65_9_" fill="#4B92DB" points="310.7,217.9 309.2,217.7 309.4,216.4 310.9,216.6 			"/>
			<rect id="rect67_9_" x="298.2" y="216.2" fill="#4B92DB" width="1.7" height="1.3"/>
			<polygon id="polygon69_9_" fill="#4B92DB" points="295.9,219.1 296.1,217.7 294.6,217.5 294.4,218.8 			"/>
			<polygon id="rect71_9_" fill="#4B92DB" points="294.6,220.8 292.9,220.4 293.2,219.1 294.9,219.5 			"/>
			<polygon id="rect73_9_" fill="#4B92DB" points="291.5,222.5 291.3,221.1 292.6,220.9 292.8,222.2 			"/>
			<polygon id="polygon75_9_" fill="#4B92DB" points="120.8,355.1 119.7,355.1 119.7,357.3 121.5,357.3 121.5,360.2 122.8,360.2 
				122.6,356.9 120.8,356.2 			"/>
			<polygon id="polygon77_9_" fill="#4B92DB" points="133,371.2 132.1,369.2 130.6,365.2 133.8,366.8 134.9,369.8 136.4,371 
				137.9,374.2 137.1,375.8 134.7,373.6 			"/>
			<polygon id="polygon79_9_" fill="#4B92DB" points="181.7,432.7 179.9,430.1 182.6,430.5 185.4,432.9 186.5,435.8 184.9,436.7 
				184.1,435.4 181.9,434.7 			"/>
			<path id="path81_9_" fill="#4B92DB" d="M299.3,235.1h-2.4l-0.4-4.8l1.3-0.9V227h-7.6l-0.2-2.4l1.1-0.7l-1.7-0.7L288,225l-0.4,2
				l-2.2,0.4v1.1h-1.5v2.9l-6.1,5.1l-12.1-0.4c-0.9,2-3-0.2-3-0.2c-0.4-1.3-3.5,0-3.5,0c0,2.4-4.1-1.1-4.1-1.1l-7.6-5.5
				c-4.3-4-10.8,1.1-11,2.2c0.2,3.1-5,0.7-5,0.7s-4.3-1.3-5,0.4c-0.6,1.8-3.5,1.3-3.5,1.3l-0.4,0.9l-2.2,0.4l-0.4,1.3l-2.6,0.4
				l6.5-0.2c1.7-0.2-0.7,3.7-1.7,3.5l-3,0.2l-1.1,1.1h-2.8l-1.3,1.8l-4.1-0.2c0,0-2.4,2-2.2,2.6c0.2,0.7-0.4,2.6-1.1,2.6
				c-0.7,0-1.9,2-1.5,2.6c0.4,0.7-1.3,2.9-1.3,2.9l-0.4,2.2l-1.3,0.4v5.9l-2.6,1.8v2.6l-3.9,4.2l0.4,3.5l-3.2,3.5l0.4,3.5l-1.9,0.7
				l-0.4,1.5l-0.9,4.6l2.2,0.2c1.1-0.4,0.9,2.9,0,3.3c-0.9,0.4-3.3,1.3-1.9,2.2c1.3,0.9-3.5,0.7-3.5-0.7c0-1.3-2.6-2.4-3.2-2
				c-0.7,0.4-1.7-2-1.7-2c-2.4-2.4-9.7,0.2-9.7,0.2l-1.1,3.5c-2.4,0.4-3.9,4.4-3.9,4.4c-1.9,0.7-3.5,3.1-2.8,3.7
				c0.6,0.7-1.1,0.9-1.1,0.9v4.8l-1.1,1.5l0.2,5.3c1.3,0,1.1,2.4,1.1,2.4c-2.2,0.2-1.7,3.1-1.7,3.1l-4.5,1.5l-0.9,1.3l-5.6-0.2
				l-1.5,1.5l-1.5-1.5h-10.8l-0.4-1.1l-2.2-0.4l-0.2-2.4l-3.2,0.2l-0.6,1.3l-3.5,0.2c0.2,2.2-3.5,5.5-3.9,4.6
				c-0.4-0.9-2.8-3.3-1.7-3.7c1.1-0.4,3.9-0.9,3.9-0.9v-1.5l-8-0.2l-0.9,1.3l-3.3,0.2v3.5l-1.5,0.4c-1.1,0.7,0.2,3.1,0.2,3.1
				c1.5,1.5-0.2,4-0.2,4c-1.3,1.3,1.1,3.7,1.1,3.7c1.7,0.4-1.1,1.8-1.1,1.8c0.4,2.2,1.7,2.9,1.7,2.9c-1.3,2.2,0.9,3.3,0.9,3.3
				l0.2,3.7l1.5,0.9v2.4l0.9,1.5h3.5l-0.2-5.5c-3-3.5,2.6-4.4,2.8-3.1c0.2,1.3,2.6,2,2.6,2c0.4,3.3,4.1,5.3,5.2,2
				c1.1-3.3,1.9-1.3,2.6,0.2c0.7,1.5,4.8,5.3,4.8,5.3h3.3l0.4,3.1c3.7-0.2,4.8,0.2,6.3,5.3c1.5,5.1,5.6,6.4,5.6,6.4l3-0.2
				c0-2.6,3,0.4,3,1.8c0,1.3,5.8,6.4,5.8,6.4l5.8,1.3l5.4,4.4l4.1-0.4h1.7c1.1-3.7,6.3,0.2,6.7,1.5c0.4,1.3,3.9,3.5,4.3,2.4
				c0.4-1.1,2.8-0.4,3.3,2.9c0.4,3.3,1.9,2.6,1.9,2.6l12.3-0.2l4.3-3.7l11-0.2c5.6-0.2,2.2-7.9,1.1-7.9c-1.9-1.5,0.6-7.9,0.6-7.9
				L212,354.2c-3.7,0-0.4-5.3-0.4-5.3c2.8-1.8-0.7-4.6-0.7-4.6c0.4-2.6-1.5-5.7-1.5-5.7c-3.9-2.6-2.8-7.7-2.8-7.7v-3.5
				c-3.2-3.1,1.3-3.5,1.3-3.5c1.5-2.6-1.1-4.6-1.1-4.6l-0.2-2.9l-3.5-0.4l-0.4-10.3l-7.8-11.2c-1.5-0.4-0.4-3.1-0.4-3.1
				c1.9-1.1-0.4-3.7-0.4-3.7l-0.2-4.8l4.5-0.4l1.1-1.8h2.2l-0.2-5.7c1.1-2.9,3.7-1.3,3.7-1.3l3,0.2l1.7-3.3l0.4-2.6l-2.4-0.2
				c-2.6-1.5-1.3-7.3-1.3-7.3c4.1-6.2,8.9-2.6,8.9-2.6l3-0.2c4.5,3.1,0.4,8.8,0.4,8.8c-0.9,1.3-0.4,5.5-0.4,5.5l1.1,7l-2.8,2.4
				c-2.4,1.3-2.4,4.4,0.2,5.1c1.7,0.2,1.1,4.4-1.5,1.5c-3.9,0,2.2,3.5,0.4,2.6c3.9,2,3-1.8,3-1.8l5.2-4.2c1.9-1.5,5.4,3.3,5.4,4
				c0,0.7,8.7,0.2,8.7,0.2c2.4,1.5,3.2,5.5,3.2,5.5c2.4-3.1,7.4-0.2,3.7,1.5c3.5,2.2,3.5,4.2,3.5,4.2c2.8-0.9,2.8,1.3,2.8,2
				c0,0.7,0.9-3.3,0.9-3.3c-3.2-2.4,4.3-3.3,2.2,1.1l-1.3,2l2.2,1.8l0.2,5.1c4.8-0.4,3.5-6.4,3.5-6.4l2.2-0.4c0-2,1.5-0.9,1.5-0.9
				c-1.5-7.5,3.5-8.8,3.5-8.8c2.8-0.7,3-6.6,3-6.6c-1.9-0.9-0.9-4,1.3-1.3c2.2,2.6-1.3-5.3-1.3-5.3l-1.7-1.5l-2.4-0.2l-0.2-2.4H261
				l-0.7,3.1l-1.5,0.4l-0.4-0.9l-0.6,2.4h-3.9l-0.2-2.6l2.4-0.7l0.9-1.3l0.6-3.5h2.8l3.7-1.1c0.2-3.7,2.2-2.9,2.2-2.9l1.3,1.1
				l1.9,1.5l0.2,1.3l-1.3,0.7l-0.2,1.8l0.7,2.4h1.7c0.6-3.5,5.2-3.5,6.5-1.3l1.3-3.1c-3-1.5-0.1-4,0.8-2.9c0.9,1.1,2.9-2.9,2.9-2.9
				s1.5,2,0-0.7c-1.5-2.6,1.1-4,1.1-4c-0.4-2.6,2.8-2.2,2.8-2.2l0.2-3.5l-3-0.2c-0.6,3.1-3.2,0.4-1.9-0.2c1.3-0.7,2.6-2,2.6-2v-2.2
				l1.3-0.4l0.2-2.2h3.3l2.8-1.3l0.7-1.1l3-0.2l4.3-4l-0.4-1.8c-2.6,0,0-2,0-2L299.3,235.1L299.3,235.1z"/>
			<path id="path83_9_" fill="#4B92DB" d="M212,278.6l-3.9-0.4l0.2,1.5h1.1c1.7,3.1,0.2,10.6,0.2,10.6s-2.6,0.2-3-1.1
				c-0.4-1.3-1.5,2.9-0.7,3.5c0.9,0.7,3.9,0,4.1,2.4c0.2,2.4,1.9-1.5,1.9-1.5L212,278.6L212,278.6z"/>
			<polygon id="polygon85_9_" fill="#4B92DB" points="210.3,297.8 208.1,296.4 208.1,301.7 211.6,306.3 212.9,303.2 213.3,301.3 
				211.8,300.6 212,297.3 213.3,297.1 213.5,295.5 			"/>
			<polygon id="polygon87_9_" fill="#4B92DB" points="213.7,309 212.2,309.2 212,310.9 213.7,311.2 			"/>
			<polygon id="polygon89_9_" fill="#4B92DB" points="211.8,320.2 209.9,320.4 209.9,321.9 211.8,321.7 			"/>
			<path id="path91_9_" fill="#4B92DB" d="M214.3,315c0.5,0,0.9-0.4,0.9-0.9c0-0.5-0.4-0.9-0.9-0.9s-0.9,0.4-0.9,0.9
				C213.4,314.5,213.8,315,214.3,315z"/>
			<ellipse id="circle93_9_" fill="#4B92DB" cx="215.8" cy="318.6" rx="0.9" ry="0.9"/>
			<ellipse id="circle95_9_" fill="#4B92DB" cx="215.9" cy="293.5" rx="0.9" ry="0.9"/>
			<polygon id="polygon97_9_" fill="#4B92DB" points="286.9,273.8 287.4,271.2 287.5,269.2 288.5,267.9 291.1,266.8 291.1,262.6 
				289.8,262.6 289.5,261 287.2,260.8 286.7,261.9 285.6,261.9 285.4,263.7 286.7,263.7 286.9,265 286.1,265.9 285.6,267 
				283.9,267.4 280,271.2 279.8,272.9 278.7,274.5 277.4,277.7 272.9,278 272,281.9 272.6,285.2 276.5,286.8 277,284.6 278.3,283.9 
				278.5,281.7 279.4,280.2 280.7,278.6 281.1,276.9 283.3,275.6 285.9,275.1 			"/>
			<path id="path99_9_" fill="#4B92DB" d="M295.6,276v-3.1l-0.4-2.9l-3.2-1.5l-2.4,2.2l-0.4,3.1v2l-2.2,0.4l-0.4,5.9l-1.7,0.7
				l0.2,2.2l-2.4,0.7l-2.4,0.7l-0.4,2.9l-1.7,1.1l-0.9,2.6l-1.1,6.4c0,0,2,3.7,3,2c1.1-1.8,2.8-2,2.8-2l0.7-1.5l5.8,0.2
				c0.4-2.4,3.2-1.5,3.2-0.4c0,1.1,2.2,0.2,2.2,0.2l1.5-2.4h2.4l0.2-2.6l1.1-0.7v-4c3.5-1.1,3-4.4,3-4.4l0.9-1.1l-0.4-1.5
				c-1.7-0.7-0.9-2.2,0.2-1.8c1.1,0.4-1.5-2-1.5-2c-1.3,1.1-2.4-1.3-2.4-1.3L295.6,276L295.6,276z"/>
			<path id="path101_9_" fill="#4B92DB" d="M299.1,302.6c-0.2,2.6-3.5,3.5-3.5,3.5l-2.4-0.7l-1.3-1.1l-0.2-3.1l1.9-0.2l0.4,1.3
				L299.1,302.6L299.1,302.6z"/>
			<path id="path103_9_" fill="#4B92DB" d="M310.8,288.5c0.5,1.9,0.4-3.1,1.3-2.9c0.9,0.2,0.2-3.1,0.2-3.1l-3.9,2.9
				C310.3,285.7,310.5,287.7,310.8,288.5L310.8,288.5z"/>
			<path id="path105_9_" fill="#4B92DB" d="M322.2,277.1c0.9,2,0.7,4.8,3.9,7c1.1,0.7-0.6,2.2-1.7,1.5c-1.1-0.7-4.1-5.5-4.1-5.5
				v-2.9C320.9,275.6,321.9,276.2,322.2,277.1L322.2,277.1z"/>
			<polygon id="polygon107_9_" fill="#4B92DB" points="323.8,342.8 322.3,343.9 322.9,344.6 323.5,345.7 325.1,343.3 			"/>
			<line id="line109_9_" fill="#4B92DB" x1="316.8" y1="340.4" x2="316.8" y2="343"/>
			<polygon id="polygon111_9_" fill="#4B92DB" points="349.9,336.1 349.2,335 347.5,336.1 348.1,337.2 			"/>
			<path id="path113_9_" fill="#4B92DB" d="M410.8,383l2,0.9l0.2,3.7c2.6,2.6,11,0.4,11-0.2c0-0.7-0.4-8.1-0.4-8.1l-1.1-1.1
				l-0.2-5.5c0.9-2.9-4.1-7-4.5-6.2c-0.4,0.9-3.2,0.2-3.2,1.1c0,0.9-1.7,5.3-0.9,6.8c0.9,1.5-0.7,1.5-0.9,3.1
				C412.6,379.1,410.4,381.7,410.8,383L410.8,383z"/>
			<path id="path115_9_" fill="#4B92DB" d="M406.1,374.2c-0.4,1.7-1.9,2.6-2.8,2c-0.9-0.7,1.1,1.1,1.5,2c0.4,0.9,1.7,0.9,2.2,0
				c0.4-0.9,0.2-2.9,0.7-3.7C408,373.6,406.3,373.4,406.1,374.2L406.1,374.2z"/>
			<rect id="rect117_9_" x="396" y="333.9" fill="#4B92DB" width="1.5" height="4.2"/>
			<path id="path119_9_" fill="#4B92DB" d="M418.4,291.6c-0.9-1.3,4.3-3.5,5.2-0.9c0.9,2.6,0,2.2-0.9,2
				C421.9,292.5,419.7,293.4,418.4,291.6L418.4,291.6z"/>
			<polygon id="polygon123_9_" fill="#4B92DB" points="422.8,263.5 425.2,263.9 425.5,262.6 423.1,262.2 			"/>
			<polygon id="polygon125_9_" fill="#4B92DB" points="417.2,266.3 418.4,265.9 417.9,264.8 417.7,264.1 417,264.4 415.4,265.3 
				414,264.4 413.3,265.6 415,266.7 415.4,266.9 415.7,266.7 417,265.9 			"/>
			<path id="path127_9_" fill="#4B92DB" d="M425.1,212.5h-3.3c0,0,1.1,0.4-1.9-2.4c-3-2.9-5,0.7-5,0.7l-3.5,0.4v3.5l-1.7,0.7
				l0.2,2.2l2.4-0.2c0,0,0,2.6,0.7,1.5c0.7-1.1,6.1,0.2,5.6,2.9c-0.2,1.1,5.4,4,4.8,7.5c2.8,0.4,2.2,3.3,2.2,3.3l3.7,0.4l1.1-2.2
				l1.1,0.2v-1.3L429,229l-0.4-7l-1.5-1.1l0.4-1.8l-1.7-0.7l0.9-2.9L425.1,212.5L425.1,212.5z"/>
			<path id="path129_9_" fill="#4B92DB" d="M434.6,234.9l-1.7-0.2l-3.9,0.7l-2.2,4.2c0,0,1.1,0.7,1.9,2.2c0.9,1.5,1.3,10.6-1.3,12.1
				c-2.6,1.5,0.2,0.7,0.2,0.7l-0.4,4.8c0.7,2.2,1.7,1.1,2.4,0c0.7-1.1,1.3-1.3,2.2-2.4c0.9-1.1,2.2-3.1,2.4-4.6
				c0.2-1.5,1.3-4,0.6-4.6c-0.6-0.7,0.7-3.7,0.7-3.7s0.9-1.8,0-3.5c-0.9-1.8,0.2-3.7,0.9-4.6L434.6,234.9L434.6,234.9z"/>
			<polygon id="rect133_9_" fill="#4B92DB" points="437.3,243.9 437.5,242.1 438.8,242.3 438.6,244 			"/>
			<polygon id="rect135_9_" fill="#4B92DB" points="437.2,249.9 436,249.3 436.7,248 437.8,248.6 			"/>
			<path id="path137_9_" fill="#4B92DB" d="M435.3,232.5l-0.9-2c0,0,0-1.8,0.4-2.6c0.4-0.9-0.9-1.8-1.5-2c-0.7-0.2-0.4-2-0.7-2.9
				c-0.2-0.9-1.7-1.5-1.7-1.5s-0.4-3.3-0.4-4c0-0.7-1.9-1.5-1.3-2.2c0.7-0.7,1.1-1.5,1.7-2c0.7-0.4-0.7-3.5,0.4-2.9
				c1.1,0.7,1.1,1.8,1.5,2.6c0.4,0.9-0.2,4,0.9,4.6c1.1,0.7-0.2,2.9,1.5,2.9c1.7,0,0.7,4.2,0.7,4.2s-0.4,3.1,0.6,3.3
				c1.1,0.2,0.4,5.5,0.4,5.5L435.3,232.5L435.3,232.5z"/>
			<path id="path139_9_" fill="#4B92DB" d="M421.2,196.9c0.6,0.9,1.9,1.5,1.9,2.4c0,0.9-0.4,1.5,0.9,1.8c1.3,0.2,2.2-0.2,2.6,0.9
				c0.4,1.1,0.4,2.9,0.2,3.7c-0.2,0.9,0.2,2.2,1.3,2.2c1.1,0,1.3,0.2,1.3,0.9c0,0.7,1.3-2.4,1.3-2.4c-1.1-0.9-2-2.9-2-2.9
				s-1.1-3.1-1.1-3.5c0-0.4-1.5-0.9-2.2-1.1c-0.7-0.2-1.7-2.2-1.7-2.2L421.2,196.9L421.2,196.9z"/>
			<path id="path141_9_" fill="#4B92DB" d="M423.4,194.9c-0.7-0.9-1.3-1.5-2.2-2c-0.9-0.4-1.5-0.9-2.4-0.9c-0.9,0-1.7-0.9-1.3-2
				c0.4-1.1-0.7-1.5-0.7-2.4c0-0.9,0.7-0.9,1.7-0.2c1.1,0.7,0.9,0.9,1.7,2c0.9,1.1,1.3,2.2,2.2,2c0.9-0.2,1.5,2,2.4,1.3
				c0.9-0.7,0.7,1.5,0.7,1.5L423.4,194.9L423.4,194.9z"/>
			<path id="path143_9_" fill="#4B92DB" d="M398.1,219.7c1.2,1.2-6.5,0.9-6.5,0c0-0.9,0.7-4,2.6-3.3c1.9,0.7,2.2-4,2.2-4
				s-1.7,0.2-0.2-0.7c1.5-0.9,0-2.2-0.7-2.9c-0.6-0.7-1.3-1.8-1.3-1.8h3c1.3-0.9,1.7-5.1,1.7-5.1c2.6,0.9,3.9-0.9,3.9-0.9
				s0.4,1.3,1.3,2.4c0.9,1.1-2.2,1.5-1.1,2.2c1.1,0.7,1.5,2.6,1.1,3.3c-0.4,0.7-2.8,0.2-2.8-0.7c0-0.9-0.9,1.1,0,2.2
				c0.9,1.1-1.1,2.6-1.5,2.6c-0.4,0-3.2,0.4-0.9,1.8c2.4,1.3,5,0.7,5,0.7s1.9-0.2,2.6,0.9c0.7,1.1-0.2,1.3-1.3,1.3
				c-1.1,0-6.3-0.4-6.3-0.4S397.4,219.1,398.1,219.7L398.1,219.7z"/>
			<path id="path145_9_" fill="#4B92DB" d="M384.2,221.7c1.1-0.2,3.7-0.4,4.1,0.2c0.4,0.7-1.5,1.5-1.5,1.5l-2.6,0.4
				C383.3,222.8,383.1,221.9,384.2,221.7L384.2,221.7z"/>
			<path id="path147_9_" fill="#4B92DB" d="M412.1,203.2c1.7-0.9,5.4-0.9,5.2-2.2c-0.2-1.3,2.2-1.8,2.2-1.8l0.7,2.6l1.9,1.3l0.2,2.4
				c0,0,0.6-0.4-1.7,0.2c-2.4,0.7-0.9,1.8-0.9,1.8l-5.2,0.2l-0.7-2.2L412.1,203.2L412.1,203.2z"/>
			<path id="path149_9_" fill="#4B92DB" d="M403.7,191.4c1.3,0-0.4,5.1,3,4.6c3.5-0.4,0.2,1.5,2.8,1.8c2.6,0.2,1.9-2,2.8-3.5
				c0.9-1.5,0.4-2.4-1.1-2.9c-1.5-0.4-1.5-0.4-1.9-2.2c-0.4-1.8-2.2-2.2-2.2-2.2l-0.7-2.6l-2.8,1.8l-2.8,3.7
				C400.9,192.7,402.4,191.4,403.7,191.4L403.7,191.4z"/>
			<polygon id="rect153_9_" fill="#4B92DB" points="409.4,209.9 410.1,208.6 411.2,209.2 410.6,210.5 			"/>
			<rect id="rect155_9_" x="407.1" y="207.9" fill="#4B92DB" width="1.3" height="1.5"/>
			<polygon id="rect157_9_" fill="#4B92DB" points="408.2,178.6 408.5,180.5 407.2,180.7 406.9,178.7 			"/>
			<rect id="rect159_9_" x="404.6" y="199.1" fill="#4B92DB" width="1.3" height="1.1"/>
			<polygon id="rect161_9_" fill="#4B92DB" points="401.1,199 401,197.7 403.2,197.5 403.3,198.8 			"/>
			<polygon id="rect163_9_" fill="#4B92DB" points="383.3,220.2 382.1,219.7 382.7,218.1 383.9,218.6 			"/>
			<polygon id="rect165_9_" fill="#4B92DB" points="376.5,216.2 376.3,214.9 378.5,214.6 378.6,216 			"/>
			<polygon id="polygon169_9_" fill="#4B92DB" points="334.1,216 334.2,217.3 339,217.1 338.9,215.8 			"/>
			<polygon id="rect171_9_" fill="#4B92DB" points="330.9,217.7 330.5,215.7 331.8,215.4 332.2,217.4 			"/>
			<polygon id="rect173_9_" fill="#4B92DB" points="330,219 329.6,217.8 330.3,217.6 330.7,218.8 			"/>
			<path id="path175_9_" fill="#4B92DB" d="M340.9,215.3l-0.2,1.5l2.4,0.2c0,0,1.1,0.9,1.1,1.5c0,0.7,1.5,1.3,2.4,1.3
				s3.2-1.8,3.2-1.8s1.1-3.1,0.2-2.9c-0.9,0.2-2.6,1.5-2.8,0.2c-0.2-1.3-2.8-0.7-2.8-0.7L340.9,215.3L340.9,215.3z"/>
			<path id="path177_9_" fill="#4B92DB" d="M351.7,212.9c0,0.7-0.4,1.5,0.9,1.8c1.3,0.2,3.7-0.9,3.9,0.4c0.2,1.3,0.2,2.2,1.9,2.9
				c1.7,0.7,2.8,0.9,4.1,0.9c1.3,0,4.1-0.4,4.1-0.4s3.1,0.5,3.7,1.1c2.4,2.4,3.9,3.1,4.5,2c0.7-1.1-0.2-3.5-0.4-4.4
				c-0.2-0.9-3.3-5.1-4.3-4.2c-1.1,0.9-1.3,0-3.2,0.7c-1.9,0.7-6.1,0.2-6.3-0.7c-0.2-0.9-3.2-1.3-3.2-2.2c0-0.9-2.2-2-1.9-0.7
				c0.2,1.3-1.5,2-2,1.5C353,211.2,351.7,212.9,351.7,212.9L351.7,212.9z"/>
			<path id="path179_9_" fill="#4B92DB" d="M401.5,184.8l1.5-4.8c-2.2-0.4-1.7-2.9-1.7-2.9c-0.2-2-3.2-4.2-4.3-3.5
				c-1.1,0.7-0.7-4.6-0.7-4.6s2-1.3,2.8-0.7c0.9,0.7-7.4-11-9.1-9.9c-1.7,1.1-5.6-1.1-5.4-3.1c0.2-2-7.8-8.6-7.8-8.6s-2.6-1.8-3-0.4
				c-0.4,1.3-1.3,2.2,0,2.9c1.3,0.7,1.1-1.1,2.6,0.4c1.5,1.5,4.3,3.5,3.3,4.8c-1.1,1.3-2.4,1.8-2.4,1.8l1.5,1.8h2.4l0.4,3.7
				c0,0,2.6,1.3,3.2,2.9c0.7,1.5,0.7,2.4,0,3.3c-0.7,0.9-1.9,2.4-1.7,4c0.2,1.5,1.9,2.2,1.9,2.2l1.7,0.2l1.3,0.7v2.9
				c1.7-0.4,4.5,2,4.3,3.5c-0.2,1.5,0.4,0.7,2.6,2.2c2.2,1.5,1.5,1.8,3,2.9C399.6,187.4,400.9,186.7,401.5,184.8L401.5,184.8z"/>
			<path id="path181_9_" fill="#4B92DB" d="M365.8,154.9c-0.2-0.9-0.7-4,0.7-3.7c1.3,0.2,0.4,0,1.9,0.7c1.5,0.7,1.7-1.1,1.7-1.1h2.4
				l3,2.4l-0.4,2l-2.2,0.2c-1.1-1.8-3.2-1.1-2.8,0.4c0.4,1.5-1.1,4.4-1.9,4.6c-0.9,0.2-3.7,0.2-3.5-1.1
				C364.9,158,365.8,154.9,365.8,154.9L365.8,154.9z"/>
			<path id="path183_9_" fill="#4B92DB" d="M364,148.9v-1.8c0,0-0.2-1.8-1.3-1.8c-1.1,0-3-1.3-2.6-2.2c0.4-0.9-3.7-1.8-3.7-1.8
				s-3.7-3.5-2.4-3.1c1.3,0.4,0.7-1.5,0.7-1.5s-2.6,0.4-3.3,0.2c-0.7-0.2-0.4-2.2-0.4-2.2s-2.6-0.7-2.6,0c0,0.7,0.9,0.7,1.3,2
				c0.4,1.3,0.2,3.5,2.2,4c1.9,0.4,2.4,0.9,2.6,1.8c0.2,0.9,2.6,1.1,2.6,1.1l1.7,0.9L364,148.9L364,148.9z"/>
			<polygon id="polygon185_9_" fill="#4B92DB" points="340,124.8 338.3,124.3 338.3,126.3 340.7,126.5 			"/>
			<path id="path187_9_" fill="#4B92DB" d="M340,117.3c-2.3-1.7,3,1.3,3,1.3c1.7,0,2.8,1.3,2.8,2c0,0.7,2.4,0.4,2.4,0.4l0.2-1.5
				l-1.7-2.2l-1.5-1.1c0,0-2.4-0.2-2.4-0.9C342.8,114.7,340.9,118,340,117.3L340,117.3z"/>
			<path id="path189_9_" fill="#4B92DB" d="M379.8,118.6c-0.6,1.9-0.9,4.6-1.9,4.6c-1.1,0-0.7,2.9-0.7,2.9s2.8,0,3.7,0.2
				c0.9,0.2,0.9,2.4,0.9,2.4c3.3-0.2,4.6,4.2,4.1,5.3c-0.4,1.1,1.3,1.1,1.3,1.1s0,3.5-0.4,4.4c-0.4,0.9,2.8,1.5,3.7,2.9
				c0.9,1.3-0.4,5.7-1.1,5.9c-0.6,0.2,1.7,0.9,1.5,2c-0.2,1.1,0.7,0,0.9,1.8c0.2,1.8,0.7,5.5,0.7,5.5l3,0.2c0.4-2.9,6-3,6.9-2.6
				c3.7,1.3,6.5,7,6.5,8.4s-2.4,1.5-2.4,1.5l0.4,6.4c3.7,1.1,6.7,6.4,6.3,7.3c-0.4,0.9,2.6,0.7,2.6,0.7c0.4-4,4.1-2.6,4.3-1.3
				c0.2,1.3,0.9,4.2,0.9,4.2l1.1,2l1.5,1.5l2.4-0.2l0.7,1.3l2.8,0.4c0,0,2.4,2.6,2.6,3.3c0.2,0.7,3.5,0.4,4.3,0.7
				c0.9,0.2,2.2,0.9,2.4,2c0.2,1.1,1.5,2.9,1.5,2.9s2.6,0.7,2.8,1.5c0.2,0.9,1.3,2.9,1.3,2.9l2.2,1.8l0.2,2l2.4,0.2l0.7,2.6l3.9-0.2
				l2.2-1.5c2.8-1.5,4.8-3.5,5-4.4c0.2-0.9,0.6-4.2,2.8-3.5c2.2,0.7,0.7-4.8,0.7-4.8s-3-2.2-2.8-3.3c0.2-1.1-3-3.3-2.8-4.2
				c0.2-0.9-2.8-2.6-2.6-3.5c0.2-0.9-1.5-3.3-1.5-3.3l-3.3-3.1l-0.4-2l-2.6-0.2l-5.2-6.4l0.2-1.8l-1.5-0.2v-2.4l-1.5-0.9l-2.4-0.2
				l-4.8-5.3l-0.4-2.4h-2.4l0.4-4.6c1.5-2,0.6-5.7,0.6-5.7s-3,1.5-4.5,0.9c-1.5-0.7,0.6-2.2,0.6-2.2v-1.8l-1.3-1.3
				c0,0-3.7,0.4-3.9-0.2c-0.2-0.7-0.9-3.5-0.9-3.5l-0.2-3.7l-1.5-0.7l-0.2-1.3l-2.4,0.2v-2.6l-1.3-0.4l-1.3-0.7l-0.2-2.6l-4.8-0.2
				l-1.5-2.2l-1.7-2.6l-5.4-0.4l-1.3-1.3l-2.2-0.4l-1.5-0.7l-0.7,1.1l-4.1,0.2l-0.2,1.3C388.7,118.8,380.1,117.9,379.8,118.6
				L379.8,118.6z"/>
			<path id="path191_9_" fill="#4B92DB" d="M402.6,112.9c-0.3-1.7,4.3-3.3,5.4-2c1.1,1.3,4.1,1.5,4.5,8.1c0.2,2.4-3.9-2.4-3.9-2.4
				l-3.3-1.1C403.7,115.1,402.8,114,402.6,112.9L402.6,112.9z"/>
			<polygon id="rect193_9_" fill="#4B92DB" points="339.1,115.6 337.9,115 338.8,113.1 339.9,113.6 			"/>
			<path id="path195_9_" fill="#4B92DB" d="M327.9,94l-2.8-2.9v-2.4l-0.9-0.9l-0.9-3.1l-2.8-0.9l-2.8,1.1l-3,2l-3.2,0.4l-1.7,2
				l6.9,0.7l1.3,2.2l5,0.4l3.2,3.3C329,96.9,329.6,95.5,327.9,94L327.9,94z"/>
			<path id="path197_9_" fill="#4B92DB" d="M327.4,83.2c-0.5-1.9-3.3,2.4-0.4,3.3c2.8,0.9,5.6,0,5.6,0l0.7-1.3l10.8,0.2
				c0.9-0.9,1.3-2.2,1.3-2.2s2.6-0.9,3.7-0.4c1.1,0.4,0.2-3.1-0.9-2.6c-1.1,0.4-3.2,0.2-3.2,0.2h-3.9c-0.2-1.5-3.7-0.9-3.9,0
				c-0.2,0.9-1.5,1.1-1.5,1.1l-5,0.4C330.3,83.2,327.7,84.1,327.4,83.2L327.4,83.2z"/>
			<path id="path199_9_" fill="#4B92DB" d="M306,120.3c3.3,1.1,4.5,0.3,4.8-0.6c0.2-0.9,0.4-1.1,1.7-1.3c1.3-0.2-0.2-2.9-1.5-2.6
				c-1.3,0.2-2.6-0.4-2.8-1.5c-0.2-1.1-2.4-4-2.6-1.8c-0.2,2.2-1.5,2.2-1.3,3.7C304.5,117.7,305.1,120,306,120.3L306,120.3z"/>
			<path id="path201_9_" fill="#4B92DB" d="M281.1,122.8c-0.2-0.8,4.3-0.9,5-0.2c0.7,0.7,0.2,1.8,2.2,1.8c1.9,0,1.1,1.3,0.9,2
				c-0.2,0.7-2.4,0.4-2.6-0.2c-0.2-0.7-3.5-0.9-3.5-0.9S281.3,123.9,281.1,122.8L281.1,122.8z"/>
			<polygon id="polygon205_9_" fill="#4B92DB" points="353,77.1 351.9,75.9 351,76.9 352.5,78.4 353,78.8 353.4,78.5 355.6,76.7 
				354.8,75.7 			"/>
			<polygon id="polygon207_9_" fill="#4B92DB" points="341.4,70.8 340.7,71.9 342.5,73 342.8,73.2 343.2,73 345.6,71.5 344.9,70.4 
				342.8,71.7 			"/>
			<polygon id="polygon209_9_" fill="#4B92DB" points="335.5,116.9 333.4,116.6 333.2,117.9 335.1,118.1 336.4,120.3 337.5,119.6 
				336,117.2 335.8,116.9 			"/>
			<path id="path211_9_" fill="#4B92DB" d="M264.2,178.2l0.2,2.4h3.2c1.3,0-1.1-1.5-1.1-1.5S264,179.3,264.2,178.2L264.2,178.2z"/>
			<polygon id="rect213_9_" fill="#4B92DB" points="268.3,178.2 269.2,177.2 270.5,178.3 269.6,179.3 			"/>
			<polygon id="rect215_9_" fill="#4B92DB" points="228.9,137.1 229.8,136.2 231.1,137.5 230.2,138.4 			"/>
			<polygon id="polygon219_9_" fill="#4B92DB" points="289.6,418.9 289,420.1 290.4,420.8 289.9,421.3 290.9,422.2 292,421.1 
				292.6,420.5 291.8,420 			"/>
			<polygon id="polygon221_9_" fill="#4B92DB" points="274.2,403.2 272.9,404.3 272.2,404.8 272.9,405.3 274.4,406.4 275.2,405.4 
				274.4,404.8 275,404.2 			"/>
			<path id="path223_9_" fill="#4B92DB" d="M436.1,362.5c-0.3-1.1-1.5-1.6-1.7-1.6l-0.4,1.3v0c0.1,0,0.3,0.1,0.4,0.2l0.3,1.1
				c-0.1,0.1-0.2,0.3-0.3,0.4l1,0.9C436,364,436.3,363.2,436.1,362.5L436.1,362.5z"/>
			<polygon id="polygon225_9_" fill="#4B92DB" points="436,358.2 436.1,356.2 438.2,356.6 438.1,358.4 			"/>
			<path id="path227_9_" fill="#4B92DB" d="M488.3,341.2c0.9-0.6,2.1-1.7,1.9,0.8c-0.2,2.5-1.1,1.7-1.9,2.5
				C487.5,345.3,487,342,488.3,341.2z"/>
			<path id="path231_9_" fill="#4B92DB" d="M499.3,331.9c0,0,0-0.2,0-0.3c0-0.4-0.1-0.9-0.3-1.4l-1.2,0.6c0.1,0.3,0.2,0.6,0.2,0.9
				c0,0.4,0.1,0.8,0.4,1.1c0.2,0.2,0.5,0.2,0.9,0.2l-0.2-1.3C499.1,331.7,499.3,331.8,499.3,331.9L499.3,331.9z"/>
			<path id="path233_9_" fill="#4B92DB" d="M496.4,333c0.3,1.3,0.8,2.7,0.8,2.7l1.2-0.5c0,0-0.5-1.3-0.8-2.6L496.4,333L496.4,333z"
				/>
			<path id="path235_9_" fill="#4B92DB" d="M491.7,338.2l-1.3-0.1c-0.1,1,0.1,2.3,1.2,2.5l0.3-1.3c0,0,0,0,0,0
				C491.7,339.2,491.6,338.6,491.7,338.2L491.7,338.2z"/>
			<path id="path237_9_" fill="#4B92DB" d="M486,311.9c-0.1-0.4-0.3-0.8-0.7-0.9c-1-0.4-2.6,0.3-3.4,0.8l0.7,1.1
				c0.8-0.6,1.9-0.8,2.1-0.7c0,0-0.1,0-0.1-0.1L486,311.9L486,311.9z"/>
			<path id="path241_9_" fill="#4B92DB" d="M426,241.7c-0.9,0.9-2.8,1.3-2.8,1.3l-0.7,2.4l-1.1,0.9c0,0,0.2,0.7,0,2.2
				c-0.2,1.5-2.2,2.4-2.2,2.4l-0.9,1.1c0,0-5.2,0.3-5.8,0c-1.9-0.9-0.6-3.5,0.7-3.3c1.3,0.2-0.2-3.7-0.2-3.7l1.7-0.2
				c0,0,0.2-4,0.9-4c0.7,0-0.2-1.3-1.1-2c-0.9-0.7-1.9-2.9-2.8-2.6c-0.9,0.2-4.3,0-4.3,0l-0.7,1.3l-2.4,0.4c0,0,0.2,1.7-0.2,2.2
				c-1.3,1.5-6.3,4.8-4.1-0.7l0.6-1.3v-2l-3.9-0.2c0,0-1.9-0.7-1.9-1.5c0-0.9-0.2-2-0.2-2l-4.5-5.1l-5.4-0.7l-0.4-1.1l-3.2-0.4
				c-3.9-2-7.4-0.2-6.7,3.1c0.6,3.3,1.7,4.6-0.4,4.6c-2.2,0-2.6-1.8-2.6-1.8s-1.7-0.7-1.7,0.2c0,0.9-0.7,2.6,0,3.5
				c0.6,0.9-0.9,2.2-1.5,1.5c-0.6-0.7-2.4-2.6-1.9-3.3c0.4-0.7-3-4.8,0.4-5.5c3.5-0.7-0.2-2.6,1.1-3.1l1.7-0.9h1.7l1.1-0.9l-2.8-0.4
				l-1.7-0.2l-3.3-0.2c-3.2,2.2-3.9,4.8-3.9,4.8c-1.7,3.3-5.8-1.3-4.3-3.1c1.5-1.8-4.8-0.2-5.9,0.7c-1.1,0.9-4.3,0.4-4.3,0.4
				c-0.6,2-3.7-0.2-2.8-1.5c0.9-1.3,0.9-2.2,0.9-2.2l-1.1-0.2l-1.3,2.4c-3,0-3.9,1.8-3.3,2.9c0.6,1.1-0.9-0.2-1.3,1.3
				c-0.4,1.5,0.2,1.5,1.5,2.2c1.3,0.7-0.7,0.7,0.2,1.8c0.9,1.1,3.5,0,2,1.5c-1.5,1.5-4.6,0.9-4.6,0.9c-0.2,2-4.3,1.5-4.8,0.9
				c-0.4-0.7-3.7-4.6-3.7-4.6l-4.1-0.2c-0.4-3.1,2-1.5,2.8-4c0.9-2.4,1.3-6.4,1.3-6.4s-3.5-0.2-3.7,0.9c-0.2,1.1-2.4,1.8-2.4,1.8
				s-1.7,0.7-1.1,1.5c0.7,0.9-1.3,1.3-1.3,1.3s0.3,1.4-0.2,2c-1.7,1.8-6.1,0.2-6.7-0.4l-2.6-1.1l-2.6-1.8l-3,1.3l-0.9,0.9h-3.3
				l-0.2,2.6l5.8,0.7l0.4,5.4l-2.4-0.8h-1.5l-0.6-1.3l-1.3-0.2v4.8l1.3,1.1l1.1,1.1l2.2,0.2l0.4,2.6l5.4,0.2l0.7,1.1l3.3,0.2
				l6.3,6.4l-0.4,2l-1.1,0.7c0.4,1.5-2.8,0.7-2.8,0.7v1.3l1.5,0.2l1.5,0.9l2.2-3.7c2.4-1.5,3.5,0.7,3.7,2c0.2,1.3-1.1,1.1-1.1,1.1
				v3.1l1.3,0.4c2.2,2.6-0.9,4.2-0.9,4.2L324,265c-0.7,2-3,1.5-3,1.5l-0.9,1.3l-2.6,0.7l5.1,0.7c0.5-1.8,1.8-2.2,2.4-1.3
				c0.7,0.9,0.7,2.4,0.7,2.4l1.3,0.2l-0.2,2.4l1.3,0.4v7l1.5,1.8c2.6-1.1,2.6,0.7,1.3,1.5c-1.3,0.9-0.4,4.8-0.4,4.8l-1.1,1.1v1.8
				l-1.3,0.9v2.4c-2.2-1.1-4.8-0.7-5.4,0c-1.9-1.3-6.1-0.9-6.1,0.2c1.3,1.8-1.5,2.2-1.5,2.2l-1.5,1.8c1.1,2.2-1.1,2.4-1.1,2.4v4.2
				l-2.6,2.4l0.2,5.7c0,1.5,3.2,1.8,3.9,0.9c0.7-0.9,3.3,1.8,3.3,1.8h1.9l0.4-4l-1.3-0.7v-6.4l2.2-2.4c2.6-0.9,1.7,5.7,1.7,6.4
				c0.2,2.4,1.3,2.2,2.4,1.8c2.2-0.9,0.4,2.4-1.3,2.2c-1.7-0.2-0.7,2.2-0.7,2.2l1.1,0.4l-2,1.5l-1.7,2l-2.2-0.7l-2.6-0.2l-0.9-1.5
				l-1.5-0.2l-0.2,3.1l-1.1,1.3l-2.6,2.6c3.5,0-0.4,2.4-1.3,2.4c1.9,0.7-0.2,2.6-5.2,1.1v1.5l-1.7,0.2l1.5,1.8l1.7,0.2l-0.7,3.7
				c0,2.9-7.1,0.9-7.8,0.2l-0.2,4l-1.3,0.2l0.2,2.6l-0.2,3.7l2.4-0.4v1.5l5.9,0.2l8.4-9l5-1.1c0.4-2.2,2.6,0.4,2.6,0.4
				c2.2-0.2,2.6,1.3,2.6,1.3l2.8,0.4c2.4,0.7,0.9,0.9,1.1,1.8c0.2,1.3,1.3,0.9,1.3,0.9l0.4-2.9l1.3,0.2l-1.3-1.5l-2.4-1.1l-2.6-1.1
				c-1.7-2.4,0.4-2,2.2-1.8h2.8c0,0,3.3,4.4,3.3,5.5c0,1.1,1.5,1.3,1.5,1.3l1.9-0.2l0.7,1.5h1.9l0.7,1.3h3.9l0.2-2l-3.7-0.7
				l-0.2-2.2l-2.6-0.7c-0.9-3.7,0.6-4.8,1.7-3.1l1.3,0.2l-0.4-3.3l1.5-0.4l-0.4-4.6l-1.3-0.4v-1.5l5.4,0.2c-0.4-2.9,0.2-4.2,0.2-4.2
				h1.5l0.2,1.1l6.6,0.6l4.7-5.4c-0.2-0.4,0.5-0.7,0-1.2c-0.7-0.7-1.5,0-2.6-0.7c-1.1-0.7,0-4.4-0.2-5.3c-0.2-0.9,3.7-2.2,3-0.2
				c-0.7,2,0,2.9,0,2.9c2.8-2.6,5.2,0.2,5,0.9c-0.2,0.7,1.5,1.3,2.6,0.7c1.1-0.7,2.4,2,2,3.3c-0.4,1.3-4.3,1.1-4.5-0.2
				c-0.2-1.3-0.9-0.9-1.3-0.2c-0.4,0.7-2.4,1.1-3.5,0.4c-0.2-0.1-0.3-0.2-0.4-0.4l-4.7,5.4l0.3,0c2.6,1.5,1.3,3.5,0.4,4
				c-0.9,0.4-2.4,0.4-2.4,0.4l-0.4,0.9l-5.6,0.4l-0.4,2.2c-2.8-0.4-3.9,2.6-3.2,4.2c0.7,1.5,0,2.9,0,2.9l2.4,1.1l3-0.9
				c0.4-2.2,2.4-2.6,4.1-4c1.7-1.3,4.5,2.4,3.7,4.2c-0.9,1.8-0.9,2.4-0.9,2.4l0.2,2l-2.2,0.9l-1.7,0.9l-0.2,1.1h-5.8l-1.1,1.1
				l-2.8,0.2l-0.9,1.3l-1.9,0.2c0,0-3.3,1.5-1.9,3.3c1.3,1.8-5.4,1.5-6.9-0.9c-0.4,2.2-2.8,0.2-2.8,0.2l-2.4-0.7l-0.2-3.3
				c-0.4-2.2-4.5-2.2-4.3-0.7c0.2,1.5-7.8,0.7-7.8,0.7l-2.6,1.3l-2.4,1.4l-0.2,1.1l-3.9,0.4l-1.7,0.9l-0.6-1.3h-1.7l-1.7,2.4
				c-4.5,0.2-8.9,2.9-8.4,4c0.4,1.1-1.7,2.2-1.7,2.2l-2,0.7l-1.3,2l-2.6,0.9l-0.4,4.6l-1.3,0.9v2l-1.5,0.4v1.1l-2.2,0.2l1.3,3.3
				l1.7,0.9c3,0.4,1.7,4.2,1.7,4.2l1.7,0.2l0.9,2.4l1.7,3.5c0.7,2.6,2.6,2,3.5,1.8c0.9-0.2,1.7,2.6,1.7,2.6l8.7,0.2
				c0,0-0.4,0.9,1.1,1.3c1.5,0.4,11.5,0.9,11.9,0.2c-0.4-2,5.4-2.4,7.8-0.7c2.4,1.8,5.6,0.7,5.6,0.7l3.2,4l2.2,4.8l3.7,1.1l2.6,0.7
				l0.9,3.7l1.9,0.2l0.7,2.4c2.4,1.8-0.7,5.5-0.7,5.5v4.8l1.7,0.9l-0.2,1.8l2.8,2.9l3.2,0.2l8.2,8.8l6.5,2l1.1,3.5l1.7-0.2l1.3-1.1
				l5.2-0.2l2.6-2.4l2.8-0.4l24-20.4l-2.2-1.3v-4.8c3.9-2.9,4.1-7.9,0.4-8.4c-2.8-0.3-1.5-3.3,1.1-3.7l1.5-0.7v-2l5-4.6v-3.5
				l-10.8-9c-4.8-1.8,0-12.3,3.2-12.1c3.3,0.2-0.2-16.3-0.2-16.3l-1.7-0.9l0.4-5.3h-2.4l-3.9,5.1l-1.1,3.5
				c-0.4,4.6-13.9,3.7-14.5,3.1c-0.7-0.7-5.2-2.6-5.2-2.6s-3.5-2.9-4.1-2c-0.7,0.9-3.7-1.1-3.7-0.4c0,0.7-2.8-1.5-2.8-1.5l-4.3-1.5
				l3.3-0.7l-0.7-2.6l5.6,2.9c0.7,0.9,3.5,0.7,3.5,0.7l0.9,1.1c0,0,1.7-0.2,2.8,1.1c1.1,1.3,6.7,0.2,6.7,0.2l1.5,1.3l2.4,0.9
				l6.7,0.2l0.2-4.2l1.3-1.3l-0.2-2.6l1.5-1.3v-2.2l1.3-0.4l0.2-4.8l1.1-0.2v-10.6l-3.2-3.1c-0.2,1.1-3.7,1.1-3.7,1.1
				s-0.9,1.5-1.5,1.5c-0.6,0,0.9,2,0.4,3.3c-0.4,1.3-2.2,1.3-2.2,1.3l-3.3,0.9l-0.9,1.1h-3.5l-0.4-2.9l3.9-1.1l2.2-1.1l1.1-2.2
				c0.2-2.2,2.8-2,2.8-2s5-4.2,5.2-6.2c0.2-2,2-7.5,5-7.5h5.6c2.2-0.9,1.5-3.7,1.5-3.7l2.8-0.4l0.4,1.5c0,0,3.9,0.4,4.3-0.2
				c0.4-0.7,1.3-2.2,2.4-1.5c1.1,0.7,4.5-1.5,4.5-1.5c0.2-1.5,5.6-0.9,5.6-0.9l0.7-2c0,0-3.7-5.1-4.3-5.1c-0.7,0-4.1-3.1-4.6-2
				c-3.5-0.9-3.2-5.7-3.2-5.7l-1.3-3.1c0-1.8-3.2-5.5-3.9-5.1c-3.3-2.4-0.9-5.3,0-5.5c0.9-0.2,3-3.3,3-3.3l1.1-3.1l3.7-1.1l0.4-2.9
				l-1.9-0.2c0,0,2.2-4,3.2-4c1.1,0,8.2,0,8.9-0.4c0.7-0.4,1.9-4,1.9-4.6c0-0.7,1.7-0.9,2.4-1.1c0.7-0.2,2.2-2,2.6-2.9
				C428.4,246.3,426.9,240.8,426,241.7L426,241.7z"/>
			<path id="path245_9_" fill="#4B92DB" d="M306,320.9c0.3-0.3,0.7,1,1.3,0.8c0.6-0.2,1,1.2,0.3,1.2c-0.7,0-0.7,0.8-0.7,1.2
				c0,0.3,0,1.2-0.5,1.6c-0.5,0.5-1,0.2-1.6-0.2c-0.6-0.3-1-0.3-1.8-0.3c-0.8,0-0.2,1.3-0.2,1.3s-3.4-0.2-2.8-0.7
				c0.7-0.5,1.3-0.7,0.8-1c-0.5-0.3,0-0.7,0-1.3c0-0.7,1.6-0.3,1.1-0.8c-0.5-0.5,0-2.4,0.8-1.3l0.5-1.2c-0.5-0.5-0.2-0.7-1.1-1
				c-1-0.3-0.2-2.3-0.2-2.3l0.2-1.3c0.3-1.6,3.6-1.8,3.7-0.3c0.2,1.5,0,2.5,0,2.5l1,0.3c0,0-0.2,1-1,1c-0.8,0,0,0.5-0.5,1L306,320.9
				L306,320.9z"/>
			<path id="path247_9_" fill="#4B92DB" d="M295.3,322.6c0.5-1,1.6-5.3,2.9-4c1.3,1.3,2.1,0,2.1,0s0.7,0.7,0.3,2
				c-0.3,1.3-0.7,2.6-1.5,2.8c-0.8,0.2-1.5,0.7-2.4,0.8C295.8,324.4,295.3,322.6,295.3,322.6L295.3,322.6z"/>
		</g>
		<g>
			<g>
				<path fill="#4B92DB" d="M206.2,519.4L206.2,519.4c-12.5-4.7-22.4-9.8-25.8-11.5c-5.2-2.9-5.3-4.2-5.1-7.8
					c0.2-2.5,0.4-3.7,0.9-5.4l-40.1-19.5c-1.3,3.6-2.4,9.4-2.8,15.2c-0.4,6.3,0,12.7,1.4,16.6c11.6,11,36.3,28.9,62.2,38.3l0,0
					c25.9,9.4,56.3,11.5,72.3,10.5c3.6-2.1,8-6.8,11.8-11.9c3.4-4.7,6.2-9.9,7.6-13.5l-43.2-10.8c-0.7,1.6-1.4,2.7-2.8,4.7
					c-2.1,2.9-3.1,3.8-8.9,2.7C229.7,526.3,218.8,523.8,206.2,519.4L206.2,519.4C206.3,519.4,206.2,519.4,206.2,519.4z"/>
			</g>
			<g>
				<path fill="#4B92DB" d="M75,409.9L75,409.9c-4.8-9.5-8-17.9-9-20.8c-1.5-4.5-0.9-5.4,1.2-7.4c1.5-1.4,2.2-2,3.4-2.7l-13.1-33.2
					c-2.7,1.5-6.5,4.2-9.9,7.5c-3.6,3.5-6.9,7.5-8.2,10.6c0.9,12.8,5.8,36.6,16,56.2l0,0c10.2,19.6,26.9,37.2,36.9,45.3
					c3.3,0.7,8.4,0.3,13.3-0.6c4.6-0.9,9-2.5,11.8-3.8l-19.6-29.8c-1.3,0.6-2.3,0.8-4.2,1.3c-2.8,0.6-3.9,0.6-6.8-3.2
					C85.1,426.7,80,419.3,75,409.9L75,409.9C75,409.9,75,409.9,75,409.9z"/>
			</g>
			<g>
				<path fill="#4B92DB" d="M44.1,270.4L44.1,270.4c0.3-8.5,1.4-15.6,1.8-18c0.7-3.7,1.5-4.1,3.7-4.7c1.5-0.4,2.3-0.5,3.5-0.6
					l3.7-28.3c-2.5,0-6.2,0.4-9.8,1.4c-3.9,1-7.7,2.6-9.8,4.2c-4.3,9.3-10.2,27.9-10.6,45.5l0,0c-0.5,17.6,4.4,36.5,8.3,46
					c2,1.8,5.8,3.5,9.6,4.7c3.6,1.1,7.3,1.8,9.7,1.9l-2.2-28.4c-1.1-0.1-1.9-0.3-3.4-0.8c-2.2-0.7-3-1.1-3.5-4.9
					C44.6,286,44,278.9,44.1,270.4L44.1,270.4C44.1,270.4,44.1,270.4,44.1,270.4z"/>
			</g>
			<g>
				<path fill="#4B92DB" d="M76.2,155.9L76.2,155.9c3.2-6,6.3-10.8,7.5-12.4c1.8-2.4,2.5-2.5,4.3-2.1c1.3,0.2,1.9,0.4,2.7,0.8
					L103,123c-1.8-0.9-4.6-1.8-7.6-2.4c-3.2-0.6-6.5-0.8-8.5-0.3c-6.3,5.2-16.9,16.6-23.3,29.2l0,0c-6.4,12.6-9.3,27.9-9.8,36.1
					c0.8,2,3,4.5,5.3,6.7c2.2,2,4.6,3.8,6.4,4.7l8.2-21.3c-0.8-0.5-1.3-0.9-2.2-1.7c-1.4-1.3-1.7-1.8-0.8-4.7
					C71.2,167.4,73.2,162.1,76.2,155.9L76.2,155.9C76.2,156,76.2,155.9,76.2,155.9z"/>
			</g>
			<g>
				<path fill="#4B92DB" d="M405.7,519.4L405.7,519.4c-12.6,4.4-23.4,6.9-27.2,7.7c-5.8,1.1-6.8,0.2-8.9-2.7c-1.5-2-2.1-3.1-2.8-4.7
					l-43.2,10.8c1.4,3.6,4.2,8.8,7.6,13.5c3.7,5,8.2,9.8,11.8,11.9c16,1,46.4-1.1,72.3-10.5l0,0c25.9-9.4,50.5-27.3,62.2-38.3
					c1.4-3.9,1.8-10.4,1.4-16.6c-0.4-5.8-1.6-11.6-2.8-15.2l-40.1,19.5c0.5,1.7,0.7,2.9,0.9,5.4c0.3,3.6,0.1,4.9-5.1,7.8
					C428.2,509.6,418.2,514.6,405.7,519.4L405.7,519.4C405.8,519.4,405.7,519.4,405.7,519.4z"/>
			</g>
			<g>
				<path fill="#4B92DB" d="M537,409.9L537,409.9c-5,9.4-10.1,16.8-11.9,19.3c-2.8,3.8-3.9,3.8-6.8,3.2c-2-0.4-2.9-0.7-4.2-1.3
					l-19.6,29.8c2.8,1.4,7.2,2.9,11.8,3.8c4.9,1,10.1,1.3,13.3,0.6c10-8.1,26.7-25.7,36.9-45.3l0,0c10.2-19.6,15.1-43.4,16-56.2
					c-1.3-3.1-4.6-7.1-8.2-10.6c-3.4-3.2-7.2-6-9.9-7.5L541.4,379c1.2,0.8,2,1.4,3.4,2.7c2.1,2,2.7,2.9,1.2,7.4
					C545,392,541.8,400.4,537,409.9L537,409.9C537,409.9,537,409.9,537,409.9z"/>
			</g>
			<g>
				<path fill="#4B92DB" d="M567.9,270.4L567.9,270.4c0.1,8.5-0.6,15.6-0.8,18.1c-0.5,3.8-1.3,4.2-3.5,4.9c-1.5,0.5-2.3,0.6-3.4,0.8
					l-2.2,28.4c2.5-0.1,6.2-0.8,9.7-1.9c3.8-1.2,7.6-3,9.6-4.7c3.9-9.5,8.7-28.4,8.3-46l0,0c-0.5-17.6-6.3-36.2-10.6-45.5
					c-2.1-1.6-5.9-3.2-9.8-4.2c-3.6-0.9-7.4-1.4-9.8-1.4l3.7,28.3c1.2,0.1,1.9,0.2,3.5,0.6c2.2,0.6,3,1,3.7,4.7
					C566.6,254.8,567.6,261.9,567.9,270.4L567.9,270.4C567.9,270.4,567.9,270.4,567.9,270.4z"/>
			</g>
			<g>
				<path fill="#4B92DB" d="M535.8,156L535.8,156c3,6.1,5,11.5,5.6,13.4c0.9,2.9,0.5,3.5-0.8,4.7c-0.9,0.9-1.4,1.3-2.2,1.7l8.2,21.3
					c1.7-0.9,4.2-2.7,6.4-4.7c2.3-2.2,4.5-4.8,5.3-6.7c-0.5-8.2-3.4-23.5-9.8-36.1l0,0c-6.4-12.6-17-24-23.3-29.2
					c-2.1-0.5-5.4-0.3-8.5,0.3c-2.9,0.6-5.8,1.5-7.6,2.4l12.4,19.2c0.9-0.4,1.5-0.5,2.7-0.8c1.8-0.4,2.5-0.3,4.3,2.1
					C529.5,145.2,532.6,149.9,535.8,156L535.8,156C535.8,155.9,535.8,156,535.8,156z"/>
			</g>
			<g>
				<path fill="#4B92DB" d="M109.1,126.5l-3.1-1.9l-12.3,19l3.5,1.8c1.1,0.6,2.3-0.2,2.8-0.9l9.5-14.8
					C110,128.8,109.9,127.4,109.1,126.5z"/>
			</g>
			<g>
				<path fill="#4B92DB" d="M81,181.9c0.3-0.9,0.3-2.3-0.9-2.8l-3.5-1.8l-8.1,21.1l3.4,1.4c1.2,0.1,2.4-0.6,2.8-1.4L81,181.9z"/>
			</g>
			<g>
				<path fill="#4B92DB" d="M65.4,219.5l-4.5-0.5l-3.6,28.1l5,0.1c1.6,0.1,2.5-1.4,2.6-2.6l2.8-21.8
					C67.7,221.6,66.8,220.1,65.4,219.5z"/>
			</g>
			<g>
				<path fill="#4B92DB" d="M63.5,297.1c-0.1-1.1-0.9-2.7-2.5-2.7l-5-0.1l2.2,28.2l4.6-0.3c1.4-0.5,2.4-1.9,2.4-3.1L63.5,297.1z"/>
			</g>
			<g>
				<path fill="#4B92DB" d="M67.4,341.4l-5.3,2.2l13,32.9l5.5-2.9c1.8-0.8,1.8-3.1,1.3-4.4l-10.1-25.6
					C71.2,342.3,69.3,341.2,67.4,341.4z"/>
			</g>
			<g>
				<path fill="#4B92DB" d="M112.4,427.4c-0.8-1.2-2.6-2.4-4.4-1.4l-5.5,2.9l19.5,29.5l4.8-3.1c1.2-1.4,1.5-3.5,0.8-4.9L112.4,427.4
					z"/>
			</g>
			<g>
				<path fill="#4B92DB" d="M141.5,462.6l-3,6.5l39.8,19.3l2.7-7.3c1-2.3-0.9-4.4-2.5-5.2l-31-15C145.6,460.2,143,460.8,141.5,462.6
					z"/>
			</g>
			<g>
				<path fill="#4B92DB" d="M255.5,503.9c-1.7-0.4-4.5,0-5.2,2.4l-2.7,7.3l42.9,10.8l1.8-6.9c-0.1-2.3-1.6-4.5-3.5-5.2L255.5,503.9z
					"/>
			</g>
			<g>
				<path fill="#4B92DB" d="M464.5,460.8l-31,15c-1.6,0.8-3.5,2.8-2.5,5.2l2.7,7.3l39.8-19.3l-3-6.5
					C469,460.8,466.4,460.2,464.5,460.8z"/>
			</g>
			<g>
				<path fill="#4B92DB" d="M323.1,512.3c-1.8,0.7-3.4,2.8-3.5,5.2l1.8,6.9l42.9-10.8l-2.7-7.3c-0.7-2.4-3.5-2.8-5.2-2.4
					L323.1,512.3z"/>
			</g>
			<g>
				<path fill="#4B92DB" d="M540.1,343.6l-10.1,25.6c-0.5,1.3-0.5,3.6,1.3,4.4l5.5,2.9l13-32.9l-5.3-2.2
					C542.7,341.2,540.8,342.3,540.1,343.6z"/>
			</g>
			<g>
				<path fill="#4B92DB" d="M484.5,450.4c-0.7,1.4-0.5,3.5,0.8,4.9l4.8,3.1l19.5-29.5L504,426c-1.7-1-3.6,0.2-4.4,1.4L484.5,450.4z"
					/>
			</g>
			<g>
				<path fill="#4B92DB" d="M544.3,222.8l2.8,21.8c0.2,1.1,1,2.7,2.6,2.6l5-0.1l-3.6-28.1l-4.5,0.5
					C545.2,220.1,544.3,221.6,544.3,222.8z"/>
			</g>
			<g>
				<path fill="#4B92DB" d="M546.8,319.1c0,1.2,1,2.6,2.4,3.1l4.6,0.3l2.2-28.2l-5,0.1c-1.6,0-2.4,1.6-2.5,2.7L546.8,319.1z"/>
			</g>
			<g>
				<path fill="#4B92DB" d="M502.4,129.7l9.5,14.8c0.5,0.8,1.7,1.6,2.8,0.9l3.5-1.8l-12.3-19l-3.1,1.9
					C502.1,127.4,502,128.8,502.4,129.7z"/>
			</g>
			<g>
				<path fill="#4B92DB" d="M537.3,198.4c0.5,0.9,1.7,1.5,2.8,1.4l3.4-1.4l-8.1-21.1l-3.5,1.8c-1.2,0.5-1.2,2-0.9,2.8L537.3,198.4z"
					/>
			</g>
		</g>
	</g>
</g>
</svg>
